<mxfile host="app.diagrams.net" modified="2023-08-28T12:19:30.975Z" agent="Mozilla/5.0 (Macintosh; Intel Mac OS X 10_15_7) AppleWebKit/537.36 (KHTML, like Gecko) Chrome/116.0.0.0 Safari/537.36" etag="IIGEaxalJ-Ts6VPT_Sfc" version="21.6.9" type="github" pages="3">
  <diagram name="[0] logical" id="On6yJk_Hg7oKFl7p0mdY">
    <mxGraphModel dx="2074" dy="1125" grid="0" gridSize="1" guides="1" tooltips="1" connect="1" arrows="1" fold="1" page="1" pageScale="1" pageWidth="850" pageHeight="1100" background="#4D5766" math="0" shadow="0">
      <root>
        <mxCell id="0" />
        <mxCell id="1" parent="0" />
        <mxCell id="uLg59qGG4U38qY8t5iAr-17" value="" style="fontColor=#0066CC;verticalAlign=top;verticalLabelPosition=bottom;labelPosition=center;align=center;html=1;outlineConnect=0;fillColor=#CCCCCC;strokeColor=#6881B3;gradientColor=none;gradientDirection=north;strokeWidth=2;shape=mxgraph.networks.server;fontFamily=Google Sans;fontSource=https%3A%2F%2Ffonts.googleapis.com%2Fcss%3Ffamily%3DGoogle%2BSans;" parent="1" vertex="1">
          <mxGeometry x="178.60000000000002" y="507" width="30" height="40" as="geometry" />
        </mxCell>
        <mxCell id="0UbO2tDIL-xU0DGPkXKH-16" value="" style="group" parent="1" vertex="1" connectable="0">
          <mxGeometry x="555" y="392" width="119.60000000000002" height="95.5" as="geometry" />
        </mxCell>
        <mxCell id="0UbO2tDIL-xU0DGPkXKH-18" value="" style="shape=image;verticalLabelPosition=bottom;verticalAlign=top;imageAspect=0;aspect=fixed;image=data:image/svg+xml,PHN2ZyB4bWxuczp4bGluaz0iaHR0cDovL3d3dy53My5vcmcvMTk5OS94bGluayIgeG1sbnM9Imh0dHA6Ly93d3cudzMub3JnLzIwMDAvc3ZnIiB4bWw6c3BhY2U9InByZXNlcnZlIiBzdHlsZT0iZW5hYmxlLWJhY2tncm91bmQ6bmV3IDAgMCAxMjAgMTIwOyIgdmlld0JveD0iMCAwIDEyMCAxMjAiIHk9IjBweCIgeD0iMHB4IiBpZD0iTGF5ZXJfMSIgdmVyc2lvbj0iMS4xIj4mI3hhOzxzdHlsZSB0eXBlPSJ0ZXh0L2NzcyI+JiN4YTsJLnN0MHtmaWxsOiMwMDVBRkY7fSYjeGE7CS5zdDF7ZmlsbDpub25lO3N0cm9rZTojRkZGRkZGO3N0cm9rZS13aWR0aDo0O3N0cm9rZS1saW5lY2FwOnJvdW5kO3N0cm9rZS1saW5lam9pbjpyb3VuZDtzdHJva2UtbWl0ZXJsaW1pdDoxMDt9JiN4YTsJLnN0MntmaWxsOiNGRkZGRkY7fSYjeGE7CS5zdDN7ZmlsbDpub25lO3N0cm9rZTojRkZGRkZGO3N0cm9rZS13aWR0aDo0O3N0cm9rZS1taXRlcmxpbWl0OjEwO30mI3hhOwkuc3Q0e2ZpbGw6bm9uZTtzdHJva2U6I0ZGRkZGRjtzdHJva2Utd2lkdGg6NDtzdHJva2UtbGluZWNhcDpyb3VuZDtzdHJva2UtbGluZWpvaW46cm91bmQ7fSYjeGE7CS5zdDV7ZmlsbDojRkZGRkZGO3N0cm9rZTojRkZGRkZGO3N0cm9rZS13aWR0aDo0O3N0cm9rZS1saW5lY2FwOnJvdW5kO3N0cm9rZS1saW5lam9pbjpyb3VuZDtzdHJva2UtbWl0ZXJsaW1pdDoxMDt9JiN4YTsJLnN0NntmaWxsOm5vbmU7c3Ryb2tlOiNGRkZGRkY7c3Ryb2tlLXdpZHRoOjQuMjMzMztzdHJva2UtbGluZWNhcDpyb3VuZDtzdHJva2UtbGluZWpvaW46cm91bmQ7c3Ryb2tlLW1pdGVybGltaXQ6MTA7fSYjeGE7CS5zdDd7ZmlsbDpub25lO3N0cm9rZTojRkZGRkZGO3N0cm9rZS13aWR0aDo0O3N0cm9rZS1saW5lY2FwOnJvdW5kO3N0cm9rZS1taXRlcmxpbWl0OjEwO30mI3hhOwkuc3Q4e2ZpbGw6I0ZGRkZGRjtzdHJva2U6I0ZGRkZGRjtzdHJva2Utd2lkdGg6NDtzdHJva2UtbWl0ZXJsaW1pdDoxMDt9JiN4YTsJLnN0OXtmaWxsOiNGRkZGRkY7c3Ryb2tlOiNGRkZGRkY7c3Ryb2tlLXdpZHRoOjQ7fSYjeGE7CS5zdDEwe2ZpbGw6bm9uZTtzdHJva2U6I0ZGRkZGRjtzdHJva2Utd2lkdGg6NDt9JiN4YTsJLnN0MTF7ZmlsbDojMjYyNjI2O3N0cm9rZTojRkZGRkZGO3N0cm9rZS13aWR0aDo0LjIzMzM7fSYjeGE7CS5zdDEye2ZpbGwtcnVsZTpldmVub2RkO2NsaXAtcnVsZTpldmVub2RkO2ZpbGw6bm9uZTtzdHJva2U6I0ZGRkZGRjtzdHJva2Utd2lkdGg6NDtzdHJva2UtbWl0ZXJsaW1pdDoxMDt9JiN4YTsJLnN0MTN7ZmlsbC1ydWxlOmV2ZW5vZGQ7Y2xpcC1ydWxlOmV2ZW5vZGQ7ZmlsbDojRkZGRkZGO3N0cm9rZTojRkZGRkZGO3N0cm9rZS13aWR0aDo0O30mI3hhOwkuc3QxNHtmaWxsOm5vbmU7c3Ryb2tlOiNGRkZGRkY7c3Ryb2tlLXdpZHRoOjQuMjMzMztzdHJva2UtbGluZWNhcDpyb3VuZDtzdHJva2UtbGluZWpvaW46cm91bmQ7fSYjeGE7CS5zdDE1e2ZpbGw6bm9uZTtzdHJva2U6I0ZGRkZGRjtzdHJva2Utd2lkdGg6NDtzdHJva2UtbGluZWNhcDpyb3VuZDt9JiN4YTsJLnN0MTZ7ZmlsbDojRkZGRkZGO3N0cm9rZTojRkZGRkZGO3N0cm9rZS1taXRlcmxpbWl0OjEwO30mI3hhOwkuc3QxN3tmaWxsOiMyNjI2MjY7c3Ryb2tlOiNGRkZGRkY7c3Ryb2tlLXdpZHRoOjQ7c3Ryb2tlLW1pdGVybGltaXQ6MTA7fSYjeGE7CS5zdDE4e2ZpbGw6I0ZGRkZGRjtzdHJva2U6I0ZGRkZGRjtzdHJva2Utd2lkdGg6NDtzdHJva2UtbGluZWNhcDpyb3VuZDtzdHJva2UtbGluZWpvaW46cm91bmQ7fSYjeGE7PC9zdHlsZT4mI3hhOzxyZWN0IGhlaWdodD0iMTIwIiB3aWR0aD0iMTIwIiBjbGFzcz0ic3QwIi8+JiN4YTs8Zz4mI3hhOwk8Zz4mI3hhOwkJPHBhdGggZD0iTTcxLjcsMTkuN1Y0OGgyOCIgY2xhc3M9InN0MSIvPiYjeGE7CQk8cGF0aCBkPSJNOTEuMiwzOC41bDcuNSw3LjZjMS4zLDEuMywxLjMsMy4xLDAsNC4zTDkxLjEsNTgiIGNsYXNzPSJzdDEiLz4mI3hhOwk8L2c+JiN4YTsJPGc+JiN4YTsJCTxwYXRoIGQ9Ik0yMCw0Ny44aDI4LjR2LTI4IiBjbGFzcz0ic3QxIi8+JiN4YTsJCTxwYXRoIGQ9Ik0zOC44LDI4LjNsNy42LTcuNWMxLjMtMS4zLDMuMS0xLjMsNC4zLDBsNy43LDcuNiIgY2xhc3M9InN0MSIvPiYjeGE7CTwvZz4mI3hhOwk8Zz4mI3hhOwkJPHBhdGggZD0iTTQ4LDEwMC4zVjcySDIwIiBjbGFzcz0ic3QxIi8+JiN4YTsJCTxwYXRoIGQ9Ik0yOC41LDgxLjVMMjEsNzMuOWMtMS4zLTEuMy0xLjMtMy4xLDAtNC4zbDcuNi03LjciIGNsYXNzPSJzdDEiLz4mI3hhOwk8L2c+JiN4YTsJPGc+JiN4YTsJCTxwYXRoIGQ9Ik0xMDAsNzEuOUg3MS42djI4IiBjbGFzcz0ic3QxIi8+JiN4YTsJCTxwYXRoIGQ9Ik04MS4yLDkxLjRsLTcuNiw3LjVjLTEuMywxLjMtMy4xLDEuMy00LjMsMGwtNy43LTcuNiIgY2xhc3M9InN0MSIvPiYjeGE7CTwvZz4mI3hhOzwvZz4mI3hhOzwvc3ZnPg==;fontFamily=Google Sans;fontSource=https%3A%2F%2Ffonts.googleapis.com%2Fcss%3Ffamily%3DGoogle%2BSans;" parent="0UbO2tDIL-xU0DGPkXKH-16" vertex="1">
          <mxGeometry x="3.6000000000000227" y="6.5" width="20" height="20" as="geometry" />
        </mxCell>
        <mxCell id="0UbO2tDIL-xU0DGPkXKH-17" value="" style="rounded=1;whiteSpace=wrap;html=1;fillColor=#98A2AE;strokeColor=none;arcSize=0;" parent="0UbO2tDIL-xU0DGPkXKH-16" vertex="1">
          <mxGeometry y="3.5" width="119.6" height="92" as="geometry" />
        </mxCell>
        <mxCell id="0UbO2tDIL-xU0DGPkXKH-19" value="leaf4" style="text;strokeColor=none;align=center;fillColor=none;verticalAlign=middle;whiteSpace=wrap;rounded=0;rotation=0;fontFamily=Google Sans;fontSource=https%3A%2F%2Ffonts.googleapis.com%2Fcss%3Ffamily%3DGoogle%2BSans;spacing=0;fontSize=6;fontColor=#FFFFFF;" parent="0UbO2tDIL-xU0DGPkXKH-16" vertex="1">
          <mxGeometry x="13.600000000000023" width="36" height="33" as="geometry" />
        </mxCell>
        <mxCell id="0UbO2tDIL-xU0DGPkXKH-20" value="" style="shape=image;verticalLabelPosition=bottom;verticalAlign=top;imageAspect=0;aspect=fixed;image=data:image/svg+xml,PHN2ZyB4bWxuczp4bGluaz0iaHR0cDovL3d3dy53My5vcmcvMTk5OS94bGluayIgeG1sbnM9Imh0dHA6Ly93d3cudzMub3JnLzIwMDAvc3ZnIiB4bWw6c3BhY2U9InByZXNlcnZlIiBzdHlsZT0iZW5hYmxlLWJhY2tncm91bmQ6bmV3IDAgMCAxMjAgMTIwOyIgdmlld0JveD0iMCAwIDEyMCAxMjAiIHk9IjBweCIgeD0iMHB4IiBpZD0iTGF5ZXJfMSIgdmVyc2lvbj0iMS4xIj4mI3hhOzxzdHlsZSB0eXBlPSJ0ZXh0L2NzcyI+JiN4YTsJLnN0MHtmaWxsOiMwMDVBRkY7fSYjeGE7CS5zdDF7ZmlsbDpub25lO3N0cm9rZTojRkZGRkZGO3N0cm9rZS13aWR0aDo0O3N0cm9rZS1saW5lY2FwOnJvdW5kO3N0cm9rZS1saW5lam9pbjpyb3VuZDtzdHJva2UtbWl0ZXJsaW1pdDoxMDt9JiN4YTsJLnN0MntmaWxsOiNGRkZGRkY7fSYjeGE7CS5zdDN7ZmlsbDpub25lO3N0cm9rZTojRkZGRkZGO3N0cm9rZS13aWR0aDo0O3N0cm9rZS1taXRlcmxpbWl0OjEwO30mI3hhOwkuc3Q0e2ZpbGw6bm9uZTtzdHJva2U6I0ZGRkZGRjtzdHJva2Utd2lkdGg6NDtzdHJva2UtbGluZWNhcDpyb3VuZDtzdHJva2UtbGluZWpvaW46cm91bmQ7fSYjeGE7CS5zdDV7ZmlsbDojRkZGRkZGO3N0cm9rZTojRkZGRkZGO3N0cm9rZS13aWR0aDo0O3N0cm9rZS1saW5lY2FwOnJvdW5kO3N0cm9rZS1saW5lam9pbjpyb3VuZDtzdHJva2UtbWl0ZXJsaW1pdDoxMDt9JiN4YTsJLnN0NntmaWxsOm5vbmU7c3Ryb2tlOiNGRkZGRkY7c3Ryb2tlLXdpZHRoOjQuMjMzMztzdHJva2UtbGluZWNhcDpyb3VuZDtzdHJva2UtbGluZWpvaW46cm91bmQ7c3Ryb2tlLW1pdGVybGltaXQ6MTA7fSYjeGE7CS5zdDd7ZmlsbDpub25lO3N0cm9rZTojRkZGRkZGO3N0cm9rZS13aWR0aDo0O3N0cm9rZS1saW5lY2FwOnJvdW5kO3N0cm9rZS1taXRlcmxpbWl0OjEwO30mI3hhOwkuc3Q4e2ZpbGw6I0ZGRkZGRjtzdHJva2U6I0ZGRkZGRjtzdHJva2Utd2lkdGg6NDtzdHJva2UtbWl0ZXJsaW1pdDoxMDt9JiN4YTsJLnN0OXtmaWxsOiNGRkZGRkY7c3Ryb2tlOiNGRkZGRkY7c3Ryb2tlLXdpZHRoOjQ7fSYjeGE7CS5zdDEwe2ZpbGw6bm9uZTtzdHJva2U6I0ZGRkZGRjtzdHJva2Utd2lkdGg6NDt9JiN4YTsJLnN0MTF7ZmlsbDojMjYyNjI2O3N0cm9rZTojRkZGRkZGO3N0cm9rZS13aWR0aDo0LjIzMzM7fSYjeGE7CS5zdDEye2ZpbGwtcnVsZTpldmVub2RkO2NsaXAtcnVsZTpldmVub2RkO2ZpbGw6bm9uZTtzdHJva2U6I0ZGRkZGRjtzdHJva2Utd2lkdGg6NDtzdHJva2UtbWl0ZXJsaW1pdDoxMDt9JiN4YTsJLnN0MTN7ZmlsbC1ydWxlOmV2ZW5vZGQ7Y2xpcC1ydWxlOmV2ZW5vZGQ7ZmlsbDojRkZGRkZGO3N0cm9rZTojRkZGRkZGO3N0cm9rZS13aWR0aDo0O30mI3hhOwkuc3QxNHtmaWxsOm5vbmU7c3Ryb2tlOiNGRkZGRkY7c3Ryb2tlLXdpZHRoOjQuMjMzMztzdHJva2UtbGluZWNhcDpyb3VuZDtzdHJva2UtbGluZWpvaW46cm91bmQ7fSYjeGE7CS5zdDE1e2ZpbGw6bm9uZTtzdHJva2U6I0ZGRkZGRjtzdHJva2Utd2lkdGg6NDtzdHJva2UtbGluZWNhcDpyb3VuZDt9JiN4YTsJLnN0MTZ7ZmlsbDojRkZGRkZGO3N0cm9rZTojRkZGRkZGO3N0cm9rZS1taXRlcmxpbWl0OjEwO30mI3hhOwkuc3QxN3tmaWxsOiMyNjI2MjY7c3Ryb2tlOiNGRkZGRkY7c3Ryb2tlLXdpZHRoOjQ7c3Ryb2tlLW1pdGVybGltaXQ6MTA7fSYjeGE7CS5zdDE4e2ZpbGw6I0ZGRkZGRjtzdHJva2U6I0ZGRkZGRjtzdHJva2Utd2lkdGg6NDtzdHJva2UtbGluZWNhcDpyb3VuZDtzdHJva2UtbGluZWpvaW46cm91bmQ7fSYjeGE7PC9zdHlsZT4mI3hhOzxyZWN0IGhlaWdodD0iMTIwIiB3aWR0aD0iMTIwIiBjbGFzcz0ic3QwIi8+JiN4YTs8Zz4mI3hhOwk8Zz4mI3hhOwkJPHBhdGggZD0iTTcxLjcsMTkuN1Y0OGgyOCIgY2xhc3M9InN0MSIvPiYjeGE7CQk8cGF0aCBkPSJNOTEuMiwzOC41bDcuNSw3LjZjMS4zLDEuMywxLjMsMy4xLDAsNC4zTDkxLjEsNTgiIGNsYXNzPSJzdDEiLz4mI3hhOwk8L2c+JiN4YTsJPGc+JiN4YTsJCTxwYXRoIGQ9Ik0yMCw0Ny44aDI4LjR2LTI4IiBjbGFzcz0ic3QxIi8+JiN4YTsJCTxwYXRoIGQ9Ik0zOC44LDI4LjNsNy42LTcuNWMxLjMtMS4zLDMuMS0xLjMsNC4zLDBsNy43LDcuNiIgY2xhc3M9InN0MSIvPiYjeGE7CTwvZz4mI3hhOwk8Zz4mI3hhOwkJPHBhdGggZD0iTTQ4LDEwMC4zVjcySDIwIiBjbGFzcz0ic3QxIi8+JiN4YTsJCTxwYXRoIGQ9Ik0yOC41LDgxLjVMMjEsNzMuOWMtMS4zLTEuMy0xLjMtMy4xLDAtNC4zbDcuNi03LjciIGNsYXNzPSJzdDEiLz4mI3hhOwk8L2c+JiN4YTsJPGc+JiN4YTsJCTxwYXRoIGQ9Ik0xMDAsNzEuOUg3MS42djI4IiBjbGFzcz0ic3QxIi8+JiN4YTsJCTxwYXRoIGQ9Ik04MS4yLDkxLjRsLTcuNiw3LjVjLTEuMywxLjMtMy4xLDEuMy00LjMsMGwtNy43LTcuNiIgY2xhc3M9InN0MSIvPiYjeGE7CTwvZz4mI3hhOzwvZz4mI3hhOzwvc3ZnPg==;fontFamily=Google Sans;fontSource=https%3A%2F%2Ffonts.googleapis.com%2Fcss%3Ffamily%3DGoogle%2BSans;" parent="0UbO2tDIL-xU0DGPkXKH-16" vertex="1">
          <mxGeometry x="3.6000000000000227" y="6.5" width="20" height="20" as="geometry" />
        </mxCell>
        <mxCell id="0UbO2tDIL-xU0DGPkXKH-12" value="" style="group" parent="1" vertex="1" connectable="0">
          <mxGeometry x="430" y="392" width="119.60000000000002" height="95.5" as="geometry" />
        </mxCell>
        <mxCell id="0UbO2tDIL-xU0DGPkXKH-13" value="" style="rounded=1;whiteSpace=wrap;html=1;fillColor=#98A2AE;strokeColor=none;arcSize=0;" parent="0UbO2tDIL-xU0DGPkXKH-12" vertex="1">
          <mxGeometry y="3.5" width="119.6" height="92" as="geometry" />
        </mxCell>
        <mxCell id="0UbO2tDIL-xU0DGPkXKH-14" value="" style="shape=image;verticalLabelPosition=bottom;verticalAlign=top;imageAspect=0;aspect=fixed;image=data:image/svg+xml,PHN2ZyB4bWxuczp4bGluaz0iaHR0cDovL3d3dy53My5vcmcvMTk5OS94bGluayIgeG1sbnM9Imh0dHA6Ly93d3cudzMub3JnLzIwMDAvc3ZnIiB4bWw6c3BhY2U9InByZXNlcnZlIiBzdHlsZT0iZW5hYmxlLWJhY2tncm91bmQ6bmV3IDAgMCAxMjAgMTIwOyIgdmlld0JveD0iMCAwIDEyMCAxMjAiIHk9IjBweCIgeD0iMHB4IiBpZD0iTGF5ZXJfMSIgdmVyc2lvbj0iMS4xIj4mI3hhOzxzdHlsZSB0eXBlPSJ0ZXh0L2NzcyI+JiN4YTsJLnN0MHtmaWxsOiMwMDVBRkY7fSYjeGE7CS5zdDF7ZmlsbDpub25lO3N0cm9rZTojRkZGRkZGO3N0cm9rZS13aWR0aDo0O3N0cm9rZS1saW5lY2FwOnJvdW5kO3N0cm9rZS1saW5lam9pbjpyb3VuZDtzdHJva2UtbWl0ZXJsaW1pdDoxMDt9JiN4YTsJLnN0MntmaWxsOiNGRkZGRkY7fSYjeGE7CS5zdDN7ZmlsbDpub25lO3N0cm9rZTojRkZGRkZGO3N0cm9rZS13aWR0aDo0O3N0cm9rZS1taXRlcmxpbWl0OjEwO30mI3hhOwkuc3Q0e2ZpbGw6bm9uZTtzdHJva2U6I0ZGRkZGRjtzdHJva2Utd2lkdGg6NDtzdHJva2UtbGluZWNhcDpyb3VuZDtzdHJva2UtbGluZWpvaW46cm91bmQ7fSYjeGE7CS5zdDV7ZmlsbDojRkZGRkZGO3N0cm9rZTojRkZGRkZGO3N0cm9rZS13aWR0aDo0O3N0cm9rZS1saW5lY2FwOnJvdW5kO3N0cm9rZS1saW5lam9pbjpyb3VuZDtzdHJva2UtbWl0ZXJsaW1pdDoxMDt9JiN4YTsJLnN0NntmaWxsOm5vbmU7c3Ryb2tlOiNGRkZGRkY7c3Ryb2tlLXdpZHRoOjQuMjMzMztzdHJva2UtbGluZWNhcDpyb3VuZDtzdHJva2UtbGluZWpvaW46cm91bmQ7c3Ryb2tlLW1pdGVybGltaXQ6MTA7fSYjeGE7CS5zdDd7ZmlsbDpub25lO3N0cm9rZTojRkZGRkZGO3N0cm9rZS13aWR0aDo0O3N0cm9rZS1saW5lY2FwOnJvdW5kO3N0cm9rZS1taXRlcmxpbWl0OjEwO30mI3hhOwkuc3Q4e2ZpbGw6I0ZGRkZGRjtzdHJva2U6I0ZGRkZGRjtzdHJva2Utd2lkdGg6NDtzdHJva2UtbWl0ZXJsaW1pdDoxMDt9JiN4YTsJLnN0OXtmaWxsOiNGRkZGRkY7c3Ryb2tlOiNGRkZGRkY7c3Ryb2tlLXdpZHRoOjQ7fSYjeGE7CS5zdDEwe2ZpbGw6bm9uZTtzdHJva2U6I0ZGRkZGRjtzdHJva2Utd2lkdGg6NDt9JiN4YTsJLnN0MTF7ZmlsbDojMjYyNjI2O3N0cm9rZTojRkZGRkZGO3N0cm9rZS13aWR0aDo0LjIzMzM7fSYjeGE7CS5zdDEye2ZpbGwtcnVsZTpldmVub2RkO2NsaXAtcnVsZTpldmVub2RkO2ZpbGw6bm9uZTtzdHJva2U6I0ZGRkZGRjtzdHJva2Utd2lkdGg6NDtzdHJva2UtbWl0ZXJsaW1pdDoxMDt9JiN4YTsJLnN0MTN7ZmlsbC1ydWxlOmV2ZW5vZGQ7Y2xpcC1ydWxlOmV2ZW5vZGQ7ZmlsbDojRkZGRkZGO3N0cm9rZTojRkZGRkZGO3N0cm9rZS13aWR0aDo0O30mI3hhOwkuc3QxNHtmaWxsOm5vbmU7c3Ryb2tlOiNGRkZGRkY7c3Ryb2tlLXdpZHRoOjQuMjMzMztzdHJva2UtbGluZWNhcDpyb3VuZDtzdHJva2UtbGluZWpvaW46cm91bmQ7fSYjeGE7CS5zdDE1e2ZpbGw6bm9uZTtzdHJva2U6I0ZGRkZGRjtzdHJva2Utd2lkdGg6NDtzdHJva2UtbGluZWNhcDpyb3VuZDt9JiN4YTsJLnN0MTZ7ZmlsbDojRkZGRkZGO3N0cm9rZTojRkZGRkZGO3N0cm9rZS1taXRlcmxpbWl0OjEwO30mI3hhOwkuc3QxN3tmaWxsOiMyNjI2MjY7c3Ryb2tlOiNGRkZGRkY7c3Ryb2tlLXdpZHRoOjQ7c3Ryb2tlLW1pdGVybGltaXQ6MTA7fSYjeGE7CS5zdDE4e2ZpbGw6I0ZGRkZGRjtzdHJva2U6I0ZGRkZGRjtzdHJva2Utd2lkdGg6NDtzdHJva2UtbGluZWNhcDpyb3VuZDtzdHJva2UtbGluZWpvaW46cm91bmQ7fSYjeGE7PC9zdHlsZT4mI3hhOzxyZWN0IGhlaWdodD0iMTIwIiB3aWR0aD0iMTIwIiBjbGFzcz0ic3QwIi8+JiN4YTs8Zz4mI3hhOwk8Zz4mI3hhOwkJPHBhdGggZD0iTTcxLjcsMTkuN1Y0OGgyOCIgY2xhc3M9InN0MSIvPiYjeGE7CQk8cGF0aCBkPSJNOTEuMiwzOC41bDcuNSw3LjZjMS4zLDEuMywxLjMsMy4xLDAsNC4zTDkxLjEsNTgiIGNsYXNzPSJzdDEiLz4mI3hhOwk8L2c+JiN4YTsJPGc+JiN4YTsJCTxwYXRoIGQ9Ik0yMCw0Ny44aDI4LjR2LTI4IiBjbGFzcz0ic3QxIi8+JiN4YTsJCTxwYXRoIGQ9Ik0zOC44LDI4LjNsNy42LTcuNWMxLjMtMS4zLDMuMS0xLjMsNC4zLDBsNy43LDcuNiIgY2xhc3M9InN0MSIvPiYjeGE7CTwvZz4mI3hhOwk8Zz4mI3hhOwkJPHBhdGggZD0iTTQ4LDEwMC4zVjcySDIwIiBjbGFzcz0ic3QxIi8+JiN4YTsJCTxwYXRoIGQ9Ik0yOC41LDgxLjVMMjEsNzMuOWMtMS4zLTEuMy0xLjMtMy4xLDAtNC4zbDcuNi03LjciIGNsYXNzPSJzdDEiLz4mI3hhOwk8L2c+JiN4YTsJPGc+JiN4YTsJCTxwYXRoIGQ9Ik0xMDAsNzEuOUg3MS42djI4IiBjbGFzcz0ic3QxIi8+JiN4YTsJCTxwYXRoIGQ9Ik04MS4yLDkxLjRsLTcuNiw3LjVjLTEuMywxLjMtMy4xLDEuMy00LjMsMGwtNy43LTcuNiIgY2xhc3M9InN0MSIvPiYjeGE7CTwvZz4mI3hhOzwvZz4mI3hhOzwvc3ZnPg==;fontFamily=Google Sans;fontSource=https%3A%2F%2Ffonts.googleapis.com%2Fcss%3Ffamily%3DGoogle%2BSans;" parent="0UbO2tDIL-xU0DGPkXKH-12" vertex="1">
          <mxGeometry x="3.6000000000000227" y="6.5" width="20" height="20" as="geometry" />
        </mxCell>
        <mxCell id="0UbO2tDIL-xU0DGPkXKH-15" value="leaf3" style="text;strokeColor=none;align=center;fillColor=none;verticalAlign=middle;whiteSpace=wrap;rounded=0;rotation=0;fontFamily=Google Sans;fontSource=https%3A%2F%2Ffonts.googleapis.com%2Fcss%3Ffamily%3DGoogle%2BSans;spacing=0;fontSize=6;fontColor=#FFFFFF;" parent="0UbO2tDIL-xU0DGPkXKH-12" vertex="1">
          <mxGeometry x="13.600000000000023" width="36" height="33" as="geometry" />
        </mxCell>
        <mxCell id="0UbO2tDIL-xU0DGPkXKH-11" value="" style="group" parent="1" vertex="1" connectable="0">
          <mxGeometry x="303" y="392" width="119.60000000000002" height="95.5" as="geometry" />
        </mxCell>
        <mxCell id="0UbO2tDIL-xU0DGPkXKH-8" value="" style="rounded=1;whiteSpace=wrap;html=1;fillColor=#98A2AE;strokeColor=none;arcSize=0;" parent="0UbO2tDIL-xU0DGPkXKH-11" vertex="1">
          <mxGeometry y="3.5" width="119.6" height="92" as="geometry" />
        </mxCell>
        <mxCell id="0UbO2tDIL-xU0DGPkXKH-9" value="" style="shape=image;verticalLabelPosition=bottom;verticalAlign=top;imageAspect=0;aspect=fixed;image=data:image/svg+xml,PHN2ZyB4bWxuczp4bGluaz0iaHR0cDovL3d3dy53My5vcmcvMTk5OS94bGluayIgeG1sbnM9Imh0dHA6Ly93d3cudzMub3JnLzIwMDAvc3ZnIiB4bWw6c3BhY2U9InByZXNlcnZlIiBzdHlsZT0iZW5hYmxlLWJhY2tncm91bmQ6bmV3IDAgMCAxMjAgMTIwOyIgdmlld0JveD0iMCAwIDEyMCAxMjAiIHk9IjBweCIgeD0iMHB4IiBpZD0iTGF5ZXJfMSIgdmVyc2lvbj0iMS4xIj4mI3hhOzxzdHlsZSB0eXBlPSJ0ZXh0L2NzcyI+JiN4YTsJLnN0MHtmaWxsOiMwMDVBRkY7fSYjeGE7CS5zdDF7ZmlsbDpub25lO3N0cm9rZTojRkZGRkZGO3N0cm9rZS13aWR0aDo0O3N0cm9rZS1saW5lY2FwOnJvdW5kO3N0cm9rZS1saW5lam9pbjpyb3VuZDtzdHJva2UtbWl0ZXJsaW1pdDoxMDt9JiN4YTsJLnN0MntmaWxsOiNGRkZGRkY7fSYjeGE7CS5zdDN7ZmlsbDpub25lO3N0cm9rZTojRkZGRkZGO3N0cm9rZS13aWR0aDo0O3N0cm9rZS1taXRlcmxpbWl0OjEwO30mI3hhOwkuc3Q0e2ZpbGw6bm9uZTtzdHJva2U6I0ZGRkZGRjtzdHJva2Utd2lkdGg6NDtzdHJva2UtbGluZWNhcDpyb3VuZDtzdHJva2UtbGluZWpvaW46cm91bmQ7fSYjeGE7CS5zdDV7ZmlsbDojRkZGRkZGO3N0cm9rZTojRkZGRkZGO3N0cm9rZS13aWR0aDo0O3N0cm9rZS1saW5lY2FwOnJvdW5kO3N0cm9rZS1saW5lam9pbjpyb3VuZDtzdHJva2UtbWl0ZXJsaW1pdDoxMDt9JiN4YTsJLnN0NntmaWxsOm5vbmU7c3Ryb2tlOiNGRkZGRkY7c3Ryb2tlLXdpZHRoOjQuMjMzMztzdHJva2UtbGluZWNhcDpyb3VuZDtzdHJva2UtbGluZWpvaW46cm91bmQ7c3Ryb2tlLW1pdGVybGltaXQ6MTA7fSYjeGE7CS5zdDd7ZmlsbDpub25lO3N0cm9rZTojRkZGRkZGO3N0cm9rZS13aWR0aDo0O3N0cm9rZS1saW5lY2FwOnJvdW5kO3N0cm9rZS1taXRlcmxpbWl0OjEwO30mI3hhOwkuc3Q4e2ZpbGw6I0ZGRkZGRjtzdHJva2U6I0ZGRkZGRjtzdHJva2Utd2lkdGg6NDtzdHJva2UtbWl0ZXJsaW1pdDoxMDt9JiN4YTsJLnN0OXtmaWxsOiNGRkZGRkY7c3Ryb2tlOiNGRkZGRkY7c3Ryb2tlLXdpZHRoOjQ7fSYjeGE7CS5zdDEwe2ZpbGw6bm9uZTtzdHJva2U6I0ZGRkZGRjtzdHJva2Utd2lkdGg6NDt9JiN4YTsJLnN0MTF7ZmlsbDojMjYyNjI2O3N0cm9rZTojRkZGRkZGO3N0cm9rZS13aWR0aDo0LjIzMzM7fSYjeGE7CS5zdDEye2ZpbGwtcnVsZTpldmVub2RkO2NsaXAtcnVsZTpldmVub2RkO2ZpbGw6bm9uZTtzdHJva2U6I0ZGRkZGRjtzdHJva2Utd2lkdGg6NDtzdHJva2UtbWl0ZXJsaW1pdDoxMDt9JiN4YTsJLnN0MTN7ZmlsbC1ydWxlOmV2ZW5vZGQ7Y2xpcC1ydWxlOmV2ZW5vZGQ7ZmlsbDojRkZGRkZGO3N0cm9rZTojRkZGRkZGO3N0cm9rZS13aWR0aDo0O30mI3hhOwkuc3QxNHtmaWxsOm5vbmU7c3Ryb2tlOiNGRkZGRkY7c3Ryb2tlLXdpZHRoOjQuMjMzMztzdHJva2UtbGluZWNhcDpyb3VuZDtzdHJva2UtbGluZWpvaW46cm91bmQ7fSYjeGE7CS5zdDE1e2ZpbGw6bm9uZTtzdHJva2U6I0ZGRkZGRjtzdHJva2Utd2lkdGg6NDtzdHJva2UtbGluZWNhcDpyb3VuZDt9JiN4YTsJLnN0MTZ7ZmlsbDojRkZGRkZGO3N0cm9rZTojRkZGRkZGO3N0cm9rZS1taXRlcmxpbWl0OjEwO30mI3hhOwkuc3QxN3tmaWxsOiMyNjI2MjY7c3Ryb2tlOiNGRkZGRkY7c3Ryb2tlLXdpZHRoOjQ7c3Ryb2tlLW1pdGVybGltaXQ6MTA7fSYjeGE7CS5zdDE4e2ZpbGw6I0ZGRkZGRjtzdHJva2U6I0ZGRkZGRjtzdHJva2Utd2lkdGg6NDtzdHJva2UtbGluZWNhcDpyb3VuZDtzdHJva2UtbGluZWpvaW46cm91bmQ7fSYjeGE7PC9zdHlsZT4mI3hhOzxyZWN0IGhlaWdodD0iMTIwIiB3aWR0aD0iMTIwIiBjbGFzcz0ic3QwIi8+JiN4YTs8Zz4mI3hhOwk8Zz4mI3hhOwkJPHBhdGggZD0iTTcxLjcsMTkuN1Y0OGgyOCIgY2xhc3M9InN0MSIvPiYjeGE7CQk8cGF0aCBkPSJNOTEuMiwzOC41bDcuNSw3LjZjMS4zLDEuMywxLjMsMy4xLDAsNC4zTDkxLjEsNTgiIGNsYXNzPSJzdDEiLz4mI3hhOwk8L2c+JiN4YTsJPGc+JiN4YTsJCTxwYXRoIGQ9Ik0yMCw0Ny44aDI4LjR2LTI4IiBjbGFzcz0ic3QxIi8+JiN4YTsJCTxwYXRoIGQ9Ik0zOC44LDI4LjNsNy42LTcuNWMxLjMtMS4zLDMuMS0xLjMsNC4zLDBsNy43LDcuNiIgY2xhc3M9InN0MSIvPiYjeGE7CTwvZz4mI3hhOwk8Zz4mI3hhOwkJPHBhdGggZD0iTTQ4LDEwMC4zVjcySDIwIiBjbGFzcz0ic3QxIi8+JiN4YTsJCTxwYXRoIGQ9Ik0yOC41LDgxLjVMMjEsNzMuOWMtMS4zLTEuMy0xLjMtMy4xLDAtNC4zbDcuNi03LjciIGNsYXNzPSJzdDEiLz4mI3hhOwk8L2c+JiN4YTsJPGc+JiN4YTsJCTxwYXRoIGQ9Ik0xMDAsNzEuOUg3MS42djI4IiBjbGFzcz0ic3QxIi8+JiN4YTsJCTxwYXRoIGQ9Ik04MS4yLDkxLjRsLTcuNiw3LjVjLTEuMywxLjMtMy4xLDEuMy00LjMsMGwtNy43LTcuNiIgY2xhc3M9InN0MSIvPiYjeGE7CTwvZz4mI3hhOzwvZz4mI3hhOzwvc3ZnPg==;fontFamily=Google Sans;fontSource=https%3A%2F%2Ffonts.googleapis.com%2Fcss%3Ffamily%3DGoogle%2BSans;" parent="0UbO2tDIL-xU0DGPkXKH-11" vertex="1">
          <mxGeometry x="3.6000000000000227" y="6.5" width="20" height="20" as="geometry" />
        </mxCell>
        <mxCell id="0UbO2tDIL-xU0DGPkXKH-10" value="leaf2" style="text;strokeColor=none;align=center;fillColor=none;verticalAlign=middle;whiteSpace=wrap;rounded=0;rotation=0;fontFamily=Google Sans;fontSource=https%3A%2F%2Ffonts.googleapis.com%2Fcss%3Ffamily%3DGoogle%2BSans;spacing=0;fontSize=6;fontColor=#FFFFFF;" parent="0UbO2tDIL-xU0DGPkXKH-11" vertex="1">
          <mxGeometry x="13.600000000000023" width="36" height="33" as="geometry" />
        </mxCell>
        <mxCell id="0UbO2tDIL-xU0DGPkXKH-6" value="" style="group" parent="1" vertex="1" connectable="0">
          <mxGeometry x="177" y="392.5" width="139" height="115.5" as="geometry" />
        </mxCell>
        <mxCell id="0UbO2tDIL-xU0DGPkXKH-1" value="" style="rounded=1;whiteSpace=wrap;html=1;fillColor=#98A2AE;strokeColor=none;arcSize=0;" parent="0UbO2tDIL-xU0DGPkXKH-6" vertex="1">
          <mxGeometry y="3.5" width="119.6" height="92" as="geometry" />
        </mxCell>
        <mxCell id="0UbO2tDIL-xU0DGPkXKH-2" value="" style="shape=image;verticalLabelPosition=bottom;verticalAlign=top;imageAspect=0;aspect=fixed;image=data:image/svg+xml,PHN2ZyB4bWxuczp4bGluaz0iaHR0cDovL3d3dy53My5vcmcvMTk5OS94bGluayIgeG1sbnM9Imh0dHA6Ly93d3cudzMub3JnLzIwMDAvc3ZnIiB4bWw6c3BhY2U9InByZXNlcnZlIiBzdHlsZT0iZW5hYmxlLWJhY2tncm91bmQ6bmV3IDAgMCAxMjAgMTIwOyIgdmlld0JveD0iMCAwIDEyMCAxMjAiIHk9IjBweCIgeD0iMHB4IiBpZD0iTGF5ZXJfMSIgdmVyc2lvbj0iMS4xIj4mI3hhOzxzdHlsZSB0eXBlPSJ0ZXh0L2NzcyI+JiN4YTsJLnN0MHtmaWxsOiMwMDVBRkY7fSYjeGE7CS5zdDF7ZmlsbDpub25lO3N0cm9rZTojRkZGRkZGO3N0cm9rZS13aWR0aDo0O3N0cm9rZS1saW5lY2FwOnJvdW5kO3N0cm9rZS1saW5lam9pbjpyb3VuZDtzdHJva2UtbWl0ZXJsaW1pdDoxMDt9JiN4YTsJLnN0MntmaWxsOiNGRkZGRkY7fSYjeGE7CS5zdDN7ZmlsbDpub25lO3N0cm9rZTojRkZGRkZGO3N0cm9rZS13aWR0aDo0O3N0cm9rZS1taXRlcmxpbWl0OjEwO30mI3hhOwkuc3Q0e2ZpbGw6bm9uZTtzdHJva2U6I0ZGRkZGRjtzdHJva2Utd2lkdGg6NDtzdHJva2UtbGluZWNhcDpyb3VuZDtzdHJva2UtbGluZWpvaW46cm91bmQ7fSYjeGE7CS5zdDV7ZmlsbDojRkZGRkZGO3N0cm9rZTojRkZGRkZGO3N0cm9rZS13aWR0aDo0O3N0cm9rZS1saW5lY2FwOnJvdW5kO3N0cm9rZS1saW5lam9pbjpyb3VuZDtzdHJva2UtbWl0ZXJsaW1pdDoxMDt9JiN4YTsJLnN0NntmaWxsOm5vbmU7c3Ryb2tlOiNGRkZGRkY7c3Ryb2tlLXdpZHRoOjQuMjMzMztzdHJva2UtbGluZWNhcDpyb3VuZDtzdHJva2UtbGluZWpvaW46cm91bmQ7c3Ryb2tlLW1pdGVybGltaXQ6MTA7fSYjeGE7CS5zdDd7ZmlsbDpub25lO3N0cm9rZTojRkZGRkZGO3N0cm9rZS13aWR0aDo0O3N0cm9rZS1saW5lY2FwOnJvdW5kO3N0cm9rZS1taXRlcmxpbWl0OjEwO30mI3hhOwkuc3Q4e2ZpbGw6I0ZGRkZGRjtzdHJva2U6I0ZGRkZGRjtzdHJva2Utd2lkdGg6NDtzdHJva2UtbWl0ZXJsaW1pdDoxMDt9JiN4YTsJLnN0OXtmaWxsOiNGRkZGRkY7c3Ryb2tlOiNGRkZGRkY7c3Ryb2tlLXdpZHRoOjQ7fSYjeGE7CS5zdDEwe2ZpbGw6bm9uZTtzdHJva2U6I0ZGRkZGRjtzdHJva2Utd2lkdGg6NDt9JiN4YTsJLnN0MTF7ZmlsbDojMjYyNjI2O3N0cm9rZTojRkZGRkZGO3N0cm9rZS13aWR0aDo0LjIzMzM7fSYjeGE7CS5zdDEye2ZpbGwtcnVsZTpldmVub2RkO2NsaXAtcnVsZTpldmVub2RkO2ZpbGw6bm9uZTtzdHJva2U6I0ZGRkZGRjtzdHJva2Utd2lkdGg6NDtzdHJva2UtbWl0ZXJsaW1pdDoxMDt9JiN4YTsJLnN0MTN7ZmlsbC1ydWxlOmV2ZW5vZGQ7Y2xpcC1ydWxlOmV2ZW5vZGQ7ZmlsbDojRkZGRkZGO3N0cm9rZTojRkZGRkZGO3N0cm9rZS13aWR0aDo0O30mI3hhOwkuc3QxNHtmaWxsOm5vbmU7c3Ryb2tlOiNGRkZGRkY7c3Ryb2tlLXdpZHRoOjQuMjMzMztzdHJva2UtbGluZWNhcDpyb3VuZDtzdHJva2UtbGluZWpvaW46cm91bmQ7fSYjeGE7CS5zdDE1e2ZpbGw6bm9uZTtzdHJva2U6I0ZGRkZGRjtzdHJva2Utd2lkdGg6NDtzdHJva2UtbGluZWNhcDpyb3VuZDt9JiN4YTsJLnN0MTZ7ZmlsbDojRkZGRkZGO3N0cm9rZTojRkZGRkZGO3N0cm9rZS1taXRlcmxpbWl0OjEwO30mI3hhOwkuc3QxN3tmaWxsOiMyNjI2MjY7c3Ryb2tlOiNGRkZGRkY7c3Ryb2tlLXdpZHRoOjQ7c3Ryb2tlLW1pdGVybGltaXQ6MTA7fSYjeGE7CS5zdDE4e2ZpbGw6I0ZGRkZGRjtzdHJva2U6I0ZGRkZGRjtzdHJva2Utd2lkdGg6NDtzdHJva2UtbGluZWNhcDpyb3VuZDtzdHJva2UtbGluZWpvaW46cm91bmQ7fSYjeGE7PC9zdHlsZT4mI3hhOzxyZWN0IGhlaWdodD0iMTIwIiB3aWR0aD0iMTIwIiBjbGFzcz0ic3QwIi8+JiN4YTs8Zz4mI3hhOwk8Zz4mI3hhOwkJPHBhdGggZD0iTTcxLjcsMTkuN1Y0OGgyOCIgY2xhc3M9InN0MSIvPiYjeGE7CQk8cGF0aCBkPSJNOTEuMiwzOC41bDcuNSw3LjZjMS4zLDEuMywxLjMsMy4xLDAsNC4zTDkxLjEsNTgiIGNsYXNzPSJzdDEiLz4mI3hhOwk8L2c+JiN4YTsJPGc+JiN4YTsJCTxwYXRoIGQ9Ik0yMCw0Ny44aDI4LjR2LTI4IiBjbGFzcz0ic3QxIi8+JiN4YTsJCTxwYXRoIGQ9Ik0zOC44LDI4LjNsNy42LTcuNWMxLjMtMS4zLDMuMS0xLjMsNC4zLDBsNy43LDcuNiIgY2xhc3M9InN0MSIvPiYjeGE7CTwvZz4mI3hhOwk8Zz4mI3hhOwkJPHBhdGggZD0iTTQ4LDEwMC4zVjcySDIwIiBjbGFzcz0ic3QxIi8+JiN4YTsJCTxwYXRoIGQ9Ik0yOC41LDgxLjVMMjEsNzMuOWMtMS4zLTEuMy0xLjMtMy4xLDAtNC4zbDcuNi03LjciIGNsYXNzPSJzdDEiLz4mI3hhOwk8L2c+JiN4YTsJPGc+JiN4YTsJCTxwYXRoIGQ9Ik0xMDAsNzEuOUg3MS42djI4IiBjbGFzcz0ic3QxIi8+JiN4YTsJCTxwYXRoIGQ9Ik04MS4yLDkxLjRsLTcuNiw3LjVjLTEuMywxLjMtMy4xLDEuMy00LjMsMGwtNy43LTcuNiIgY2xhc3M9InN0MSIvPiYjeGE7CTwvZz4mI3hhOzwvZz4mI3hhOzwvc3ZnPg==;fontFamily=Google Sans;fontSource=https%3A%2F%2Ffonts.googleapis.com%2Fcss%3Ffamily%3DGoogle%2BSans;" parent="0UbO2tDIL-xU0DGPkXKH-6" vertex="1">
          <mxGeometry x="3.5999999999999943" y="6.5" width="20" height="20" as="geometry" />
        </mxCell>
        <mxCell id="0UbO2tDIL-xU0DGPkXKH-5" value="leaf1" style="text;strokeColor=none;align=center;fillColor=none;verticalAlign=middle;whiteSpace=wrap;rounded=0;rotation=0;fontFamily=Google Sans;fontSource=https%3A%2F%2Ffonts.googleapis.com%2Fcss%3Ffamily%3DGoogle%2BSans;spacing=0;fontSize=6;fontColor=#FFFFFF;" parent="0UbO2tDIL-xU0DGPkXKH-6" vertex="1">
          <mxGeometry x="13.599999999999994" width="36" height="33" as="geometry" />
        </mxCell>
        <mxCell id="8_VZA7iozwWuDWTokxRT-2" value="" style="curved=1;endArrow=blockThin;html=1;rounded=0;endFill=1;startArrow=blockThin;startFill=1;strokeColor=#00C9FF;fontFamily=Google Sans;fontSource=https%3A%2F%2Ffonts.googleapis.com%2Fcss%3Ffamily%3DGoogle%2BSans;" parent="0UbO2tDIL-xU0DGPkXKH-6" edge="1">
          <mxGeometry width="50" height="50" relative="1" as="geometry">
            <mxPoint x="7.000000000000227" y="133.5" as="sourcePoint" />
            <mxPoint x="7.000000000000227" y="83.5" as="targetPoint" />
            <Array as="points">
              <mxPoint x="-6.999999999999773" y="113.5" />
              <mxPoint x="7.000000000000227" y="83.5" />
            </Array>
          </mxGeometry>
        </mxCell>
        <mxCell id="8ZjyRNy0Daxy2mEz9H_D-2" value="VIP&lt;br&gt;1.1.1.100" style="text;strokeColor=none;align=right;fillColor=none;html=1;verticalAlign=middle;whiteSpace=wrap;rounded=0;fontFamily=Google Sans;fontSource=https%3A%2F%2Ffonts.googleapis.com%2Fcss%3Ffamily%3DGoogle%2BSans;fontSize=7;fontColor=#FFFFFF;" parent="0UbO2tDIL-xU0DGPkXKH-6" vertex="1">
          <mxGeometry x="105" y="99.5" width="17" height="13" as="geometry" />
        </mxCell>
        <mxCell id="4zfVuzfaXlXtFDiJQvgs-2" value="" style="whiteSpace=wrap;html=1;rounded=1;fontFamily=Fira Code;fontSource=https%3A%2F%2Ffonts.googleapis.com%2Fcss%3Ffamily%3DFira%2BCode;strokeColor=none;fontSize=5;" parent="1" vertex="1">
          <mxGeometry x="181.6" y="466" width="45" height="9.67" as="geometry" />
        </mxCell>
        <mxCell id="4zfVuzfaXlXtFDiJQvgs-8" value="" style="whiteSpace=wrap;html=1;rounded=1;fontFamily=Fira Code;fontSource=https%3A%2F%2Ffonts.googleapis.com%2Fcss%3Ffamily%3DFira%2BCode;strokeColor=none;fontSize=5;fillColor=#FFFFFF;" parent="1" vertex="1">
          <mxGeometry x="246.6" y="466" width="45" height="9.67" as="geometry" />
        </mxCell>
        <mxCell id="4zfVuzfaXlXtFDiJQvgs-11" value="&lt;font style=&quot;font-size: 5px;&quot; data-font-src=&quot;https://fonts.googleapis.com/css?family=Google+Sans&quot;&gt;192.168.1.0/24&lt;/font&gt;" style="text;strokeColor=none;align=center;fillColor=none;html=1;verticalAlign=middle;whiteSpace=wrap;rounded=0;fontSize=5;fontFamily=Fira Code;fontSource=https%3A%2F%2Ffonts.googleapis.com%2Fcss%3Ffamily%3DFira%2BCode;" parent="1" vertex="1">
          <mxGeometry x="182.1" y="465.74" width="44" height="10" as="geometry" />
        </mxCell>
        <mxCell id="4zfVuzfaXlXtFDiJQvgs-12" value="&lt;font style=&quot;font-size: 5px;&quot; data-font-src=&quot;https://fonts.googleapis.com/css?family=Google+Sans&quot;&gt;192.168.2.0/24&lt;/font&gt;" style="text;strokeColor=none;align=center;fillColor=none;html=1;verticalAlign=middle;whiteSpace=wrap;rounded=0;fontSize=5;fontFamily=Fira Code;fontSource=https%3A%2F%2Ffonts.googleapis.com%2Fcss%3Ffamily%3DFira%2BCode;" parent="1" vertex="1">
          <mxGeometry x="244.6" y="466" width="52" height="10.16" as="geometry" />
        </mxCell>
        <mxCell id="4zfVuzfaXlXtFDiJQvgs-14" value="" style="endArrow=none;html=1;rounded=0;fontFamily=Google Sans;fontSource=https%3A%2F%2Ffonts.googleapis.com%2Fcss%3Ffamily%3DGoogle%2BSans;strokeColor=#FFFFFF;" parent="1" source="uLg59qGG4U38qY8t5iAr-17" edge="1">
          <mxGeometry width="50" height="50" relative="1" as="geometry">
            <mxPoint x="193.6" y="486" as="sourcePoint" />
            <mxPoint x="193.56" y="476" as="targetPoint" />
          </mxGeometry>
        </mxCell>
        <mxCell id="uLg59qGG4U38qY8t5iAr-18" value="" style="sketch=0;html=1;dashed=0;whitespace=wrap;fillColor=#2875E2;strokeColor=#ffffff;points=[[0.005,0.63,0],[0.1,0.2,0],[0.9,0.2,0],[0.5,0,0],[0.995,0.63,0],[0.72,0.99,0],[0.5,1,0],[0.28,0.99,0]];verticalLabelPosition=bottom;align=center;verticalAlign=top;shape=mxgraph.kubernetes.icon;prIcon=node;fontFamily=Google Sans;fontSource=https%3A%2F%2Ffonts.googleapis.com%2Fcss%3Ffamily%3DGoogle%2BSans;" parent="1" vertex="1">
          <mxGeometry x="183.8" y="528" width="19.6" height="19" as="geometry" />
        </mxCell>
        <mxCell id="4zfVuzfaXlXtFDiJQvgs-15" value="" style="endArrow=none;html=1;rounded=0;fontFamily=Google Sans;fontSource=https%3A%2F%2Ffonts.googleapis.com%2Fcss%3Ffamily%3DGoogle%2BSans;strokeColor=#FFFFFF;" parent="1" edge="1">
          <mxGeometry width="50" height="50" relative="1" as="geometry">
            <mxPoint x="255.38723268432807" y="509.0000000000001" as="sourcePoint" />
            <mxPoint x="255.6" y="475.66999999999996" as="targetPoint" />
          </mxGeometry>
        </mxCell>
        <mxCell id="4zfVuzfaXlXtFDiJQvgs-17" value="&lt;font color=&quot;#ffffff&quot;&gt;.1&lt;/font&gt;" style="text;strokeColor=none;align=center;fillColor=none;html=1;verticalAlign=middle;whiteSpace=wrap;rounded=0;fontSize=5;fontFamily=Google Sans;fontSource=https%3A%2F%2Ffonts.googleapis.com%2Fcss%3Ffamily%3DGoogle%2BSans;textOpacity=50;" parent="1" vertex="1">
          <mxGeometry x="180.6" y="474" width="20" height="10" as="geometry" />
        </mxCell>
        <mxCell id="4zfVuzfaXlXtFDiJQvgs-18" value="&lt;font&gt;.11&lt;/font&gt;" style="text;strokeColor=none;align=center;fillColor=none;html=1;verticalAlign=middle;whiteSpace=wrap;rounded=0;fontSize=5;fontFamily=Google Sans;fontSource=https%3A%2F%2Ffonts.googleapis.com%2Fcss%3Ffamily%3DGoogle%2BSans;fontColor=#98A2AE;" parent="1" vertex="1">
          <mxGeometry x="178.6" y="498" width="20" height="10" as="geometry" />
        </mxCell>
        <mxCell id="4zfVuzfaXlXtFDiJQvgs-19" value="&lt;font&gt;.11&lt;/font&gt;" style="text;strokeColor=none;align=center;fillColor=none;html=1;verticalAlign=middle;whiteSpace=wrap;rounded=0;fontSize=5;fontFamily=Google Sans;fontSource=https%3A%2F%2Ffonts.googleapis.com%2Fcss%3Ffamily%3DGoogle%2BSans;fontColor=#98A2AE;" parent="1" vertex="1">
          <mxGeometry x="241" y="498" width="20" height="10" as="geometry" />
        </mxCell>
        <mxCell id="4zfVuzfaXlXtFDiJQvgs-20" value="&lt;font color=&quot;#ffffff&quot;&gt;.1&lt;/font&gt;" style="text;strokeColor=none;align=center;fillColor=none;html=1;verticalAlign=middle;whiteSpace=wrap;rounded=0;fontSize=5;fontFamily=Google Sans;fontSource=https%3A%2F%2Ffonts.googleapis.com%2Fcss%3Ffamily%3DGoogle%2BSans;textOpacity=50;" parent="1" vertex="1">
          <mxGeometry x="243" y="474" width="20" height="10" as="geometry" />
        </mxCell>
        <mxCell id="4zfVuzfaXlXtFDiJQvgs-28" value="" style="whiteSpace=wrap;html=1;rounded=1;fontFamily=Fira Code;fontSource=https%3A%2F%2Ffonts.googleapis.com%2Fcss%3Ffamily%3DFira%2BCode;strokeColor=none;fontSize=5;" parent="1" vertex="1">
          <mxGeometry x="308.2" y="466" width="45" height="9.67" as="geometry" />
        </mxCell>
        <mxCell id="4zfVuzfaXlXtFDiJQvgs-30" value="" style="whiteSpace=wrap;html=1;rounded=1;fontFamily=Fira Code;fontSource=https%3A%2F%2Ffonts.googleapis.com%2Fcss%3Ffamily%3DFira%2BCode;strokeColor=none;fontSize=5;" parent="1" vertex="1">
          <mxGeometry x="373.20000000000005" y="466" width="45" height="9.67" as="geometry" />
        </mxCell>
        <mxCell id="4zfVuzfaXlXtFDiJQvgs-31" value="&lt;font style=&quot;font-size: 5px;&quot; data-font-src=&quot;https://fonts.googleapis.com/css?family=Google+Sans&quot;&gt;192.168.1.0/24&lt;/font&gt;" style="text;strokeColor=none;align=center;fillColor=none;html=1;verticalAlign=middle;whiteSpace=wrap;rounded=0;fontSize=5;fontFamily=Fira Code;fontSource=https%3A%2F%2Ffonts.googleapis.com%2Fcss%3Ffamily%3DFira%2BCode;" parent="1" vertex="1">
          <mxGeometry x="306.2" y="466" width="51" height="10" as="geometry" />
        </mxCell>
        <mxCell id="4zfVuzfaXlXtFDiJQvgs-32" value="&lt;font style=&quot;font-size: 5px;&quot; data-font-src=&quot;https://fonts.googleapis.com/css?family=Google+Sans&quot;&gt;192.168.2.0/24&lt;/font&gt;" style="text;strokeColor=none;align=center;fillColor=none;html=1;verticalAlign=middle;whiteSpace=wrap;rounded=0;fontSize=5;fontFamily=Fira Code;fontSource=https%3A%2F%2Ffonts.googleapis.com%2Fcss%3Ffamily%3DFira%2BCode;" parent="1" vertex="1">
          <mxGeometry x="371.20000000000005" y="466" width="52" height="10.16" as="geometry" />
        </mxCell>
        <mxCell id="4zfVuzfaXlXtFDiJQvgs-33" value="" style="endArrow=none;html=1;rounded=0;fontFamily=Google Sans;fontSource=https%3A%2F%2Ffonts.googleapis.com%2Fcss%3Ffamily%3DGoogle%2BSans;strokeColor=#FFFFFF;" parent="1" source="4zfVuzfaXlXtFDiJQvgs-34" edge="1">
          <mxGeometry width="50" height="50" relative="1" as="geometry">
            <mxPoint x="320.20000000000005" y="486" as="sourcePoint" />
            <mxPoint x="320.1600000000001" y="476" as="targetPoint" />
          </mxGeometry>
        </mxCell>
        <mxCell id="4zfVuzfaXlXtFDiJQvgs-34" value="" style="fontColor=#0066CC;verticalAlign=top;verticalLabelPosition=bottom;labelPosition=center;align=center;html=1;outlineConnect=0;fillColor=#CCCCCC;strokeColor=#6881B3;gradientColor=none;gradientDirection=north;strokeWidth=2;shape=mxgraph.networks.server;fontFamily=Google Sans;fontSource=https%3A%2F%2Ffonts.googleapis.com%2Fcss%3Ffamily%3DGoogle%2BSans;" parent="1" vertex="1">
          <mxGeometry x="305.20000000000005" y="507" width="30" height="40" as="geometry" />
        </mxCell>
        <mxCell id="4zfVuzfaXlXtFDiJQvgs-35" value="" style="sketch=0;html=1;dashed=0;whitespace=wrap;fillColor=#2875E2;strokeColor=#ffffff;points=[[0.005,0.63,0],[0.1,0.2,0],[0.9,0.2,0],[0.5,0,0],[0.995,0.63,0],[0.72,0.99,0],[0.5,1,0],[0.28,0.99,0]];verticalLabelPosition=bottom;align=center;verticalAlign=top;shape=mxgraph.kubernetes.icon;prIcon=node;fontFamily=Google Sans;fontSource=https%3A%2F%2Ffonts.googleapis.com%2Fcss%3Ffamily%3DGoogle%2BSans;" parent="1" vertex="1">
          <mxGeometry x="310.40000000000003" y="528" width="19.6" height="19" as="geometry" />
        </mxCell>
        <mxCell id="4zfVuzfaXlXtFDiJQvgs-36" value="" style="endArrow=none;html=1;rounded=0;fontFamily=Google Sans;fontSource=https%3A%2F%2Ffonts.googleapis.com%2Fcss%3Ffamily%3DGoogle%2BSans;strokeColor=#FFFFFF;" parent="1" edge="1">
          <mxGeometry width="50" height="50" relative="1" as="geometry">
            <mxPoint x="381.9872326843281" y="509.0000000000001" as="sourcePoint" />
            <mxPoint x="382.20000000000005" y="475.66999999999996" as="targetPoint" />
          </mxGeometry>
        </mxCell>
        <mxCell id="4zfVuzfaXlXtFDiJQvgs-37" value="&lt;font color=&quot;#ffffff&quot;&gt;.1&lt;/font&gt;" style="text;strokeColor=none;align=center;fillColor=none;html=1;verticalAlign=middle;whiteSpace=wrap;rounded=0;fontSize=5;fontFamily=Google Sans;fontSource=https%3A%2F%2Ffonts.googleapis.com%2Fcss%3Ffamily%3DGoogle%2BSans;textOpacity=50;" parent="1" vertex="1">
          <mxGeometry x="307.2" y="474" width="20" height="10" as="geometry" />
        </mxCell>
        <mxCell id="4zfVuzfaXlXtFDiJQvgs-38" value="&lt;font&gt;.12&lt;/font&gt;" style="text;strokeColor=none;align=center;fillColor=none;html=1;verticalAlign=middle;whiteSpace=wrap;rounded=0;fontSize=5;fontFamily=Google Sans;fontSource=https%3A%2F%2Ffonts.googleapis.com%2Fcss%3Ffamily%3DGoogle%2BSans;fontColor=#98A2AE;" parent="1" vertex="1">
          <mxGeometry x="306.2" y="498" width="20" height="10" as="geometry" />
        </mxCell>
        <mxCell id="4zfVuzfaXlXtFDiJQvgs-39" value="&lt;font&gt;.12&lt;/font&gt;" style="text;strokeColor=none;align=center;fillColor=none;html=1;verticalAlign=middle;whiteSpace=wrap;rounded=0;fontSize=5;fontFamily=Google Sans;fontSource=https%3A%2F%2Ffonts.googleapis.com%2Fcss%3Ffamily%3DGoogle%2BSans;fontColor=#98A2AE;" parent="1" vertex="1">
          <mxGeometry x="367" y="498" width="20" height="10" as="geometry" />
        </mxCell>
        <mxCell id="4zfVuzfaXlXtFDiJQvgs-40" value="&lt;font color=&quot;#ffffff&quot;&gt;.1&lt;/font&gt;" style="text;strokeColor=none;align=center;fillColor=none;html=1;verticalAlign=middle;whiteSpace=wrap;rounded=0;fontSize=5;fontFamily=Google Sans;fontSource=https%3A%2F%2Ffonts.googleapis.com%2Fcss%3Ffamily%3DGoogle%2BSans;textOpacity=50;" parent="1" vertex="1">
          <mxGeometry x="369.6" y="474" width="20" height="10" as="geometry" />
        </mxCell>
        <mxCell id="4zfVuzfaXlXtFDiJQvgs-48" value="" style="whiteSpace=wrap;html=1;rounded=1;fontFamily=Fira Code;fontSource=https%3A%2F%2Ffonts.googleapis.com%2Fcss%3Ffamily%3DFira%2BCode;strokeColor=none;fontSize=5;" parent="1" vertex="1">
          <mxGeometry x="434.6" y="466" width="45" height="9.67" as="geometry" />
        </mxCell>
        <mxCell id="4zfVuzfaXlXtFDiJQvgs-50" value="" style="whiteSpace=wrap;html=1;rounded=1;fontFamily=Fira Code;fontSource=https%3A%2F%2Ffonts.googleapis.com%2Fcss%3Ffamily%3DFira%2BCode;strokeColor=none;fontSize=5;" parent="1" vertex="1">
          <mxGeometry x="499.6" y="466" width="45" height="9.67" as="geometry" />
        </mxCell>
        <mxCell id="4zfVuzfaXlXtFDiJQvgs-51" value="&lt;font style=&quot;font-size: 5px;&quot; data-font-src=&quot;https://fonts.googleapis.com/css?family=Google+Sans&quot;&gt;192.168.1.0/24&lt;/font&gt;" style="text;strokeColor=none;align=center;fillColor=none;html=1;verticalAlign=middle;whiteSpace=wrap;rounded=0;fontSize=5;fontFamily=Fira Code;fontSource=https%3A%2F%2Ffonts.googleapis.com%2Fcss%3Ffamily%3DFira%2BCode;" parent="1" vertex="1">
          <mxGeometry x="432.6" y="466" width="51" height="10" as="geometry" />
        </mxCell>
        <mxCell id="4zfVuzfaXlXtFDiJQvgs-52" value="&lt;font style=&quot;font-size: 5px;&quot; data-font-src=&quot;https://fonts.googleapis.com/css?family=Google+Sans&quot;&gt;192.168.2.0/24&lt;/font&gt;" style="text;strokeColor=none;align=center;fillColor=none;html=1;verticalAlign=middle;whiteSpace=wrap;rounded=0;fontSize=5;fontFamily=Fira Code;fontSource=https%3A%2F%2Ffonts.googleapis.com%2Fcss%3Ffamily%3DFira%2BCode;" parent="1" vertex="1">
          <mxGeometry x="497.6" y="466" width="52" height="10.16" as="geometry" />
        </mxCell>
        <mxCell id="4zfVuzfaXlXtFDiJQvgs-53" value="" style="endArrow=none;html=1;rounded=0;fontFamily=Google Sans;fontSource=https%3A%2F%2Ffonts.googleapis.com%2Fcss%3Ffamily%3DGoogle%2BSans;strokeColor=#FFFFFF;" parent="1" source="4zfVuzfaXlXtFDiJQvgs-54" edge="1">
          <mxGeometry width="50" height="50" relative="1" as="geometry">
            <mxPoint x="446.6" y="486" as="sourcePoint" />
            <mxPoint x="446.56000000000006" y="476" as="targetPoint" />
          </mxGeometry>
        </mxCell>
        <mxCell id="4zfVuzfaXlXtFDiJQvgs-54" value="" style="fontColor=#0066CC;verticalAlign=top;verticalLabelPosition=bottom;labelPosition=center;align=center;html=1;outlineConnect=0;fillColor=#CCCCCC;strokeColor=#6881B3;gradientColor=none;gradientDirection=north;strokeWidth=2;shape=mxgraph.networks.server;fontFamily=Google Sans;fontSource=https%3A%2F%2Ffonts.googleapis.com%2Fcss%3Ffamily%3DGoogle%2BSans;" parent="1" vertex="1">
          <mxGeometry x="431.6" y="507" width="30" height="40" as="geometry" />
        </mxCell>
        <mxCell id="4zfVuzfaXlXtFDiJQvgs-55" value="" style="sketch=0;html=1;dashed=0;whitespace=wrap;fillColor=#2875E2;strokeColor=#ffffff;points=[[0.005,0.63,0],[0.1,0.2,0],[0.9,0.2,0],[0.5,0,0],[0.995,0.63,0],[0.72,0.99,0],[0.5,1,0],[0.28,0.99,0]];verticalLabelPosition=bottom;align=center;verticalAlign=top;shape=mxgraph.kubernetes.icon;prIcon=node;fontFamily=Google Sans;fontSource=https%3A%2F%2Ffonts.googleapis.com%2Fcss%3Ffamily%3DGoogle%2BSans;" parent="1" vertex="1">
          <mxGeometry x="436.80000000000007" y="528" width="19.6" height="19" as="geometry" />
        </mxCell>
        <mxCell id="4zfVuzfaXlXtFDiJQvgs-56" value="" style="endArrow=none;html=1;rounded=0;fontFamily=Google Sans;fontSource=https%3A%2F%2Ffonts.googleapis.com%2Fcss%3Ffamily%3DGoogle%2BSans;strokeColor=#FFFFFF;" parent="1" edge="1">
          <mxGeometry width="50" height="50" relative="1" as="geometry">
            <mxPoint x="508.3872326843282" y="509.0000000000001" as="sourcePoint" />
            <mxPoint x="508.6" y="475.66999999999996" as="targetPoint" />
          </mxGeometry>
        </mxCell>
        <mxCell id="4zfVuzfaXlXtFDiJQvgs-57" value="&lt;font color=&quot;#ffffff&quot;&gt;.1&lt;/font&gt;" style="text;strokeColor=none;align=center;fillColor=none;html=1;verticalAlign=middle;whiteSpace=wrap;rounded=0;fontSize=5;fontFamily=Google Sans;fontSource=https%3A%2F%2Ffonts.googleapis.com%2Fcss%3Ffamily%3DGoogle%2BSans;textOpacity=50;" parent="1" vertex="1">
          <mxGeometry x="433.6" y="474" width="20" height="10" as="geometry" />
        </mxCell>
        <mxCell id="4zfVuzfaXlXtFDiJQvgs-58" value="&lt;font&gt;.13&lt;/font&gt;" style="text;strokeColor=none;align=center;fillColor=none;html=1;verticalAlign=middle;whiteSpace=wrap;rounded=0;fontSize=5;fontFamily=Google Sans;fontSource=https%3A%2F%2Ffonts.googleapis.com%2Fcss%3Ffamily%3DGoogle%2BSans;fontColor=#98A2AE;" parent="1" vertex="1">
          <mxGeometry x="431.6" y="498" width="20" height="10" as="geometry" />
        </mxCell>
        <mxCell id="4zfVuzfaXlXtFDiJQvgs-59" value="&lt;font&gt;.13&lt;/font&gt;" style="text;strokeColor=none;align=center;fillColor=none;html=1;verticalAlign=middle;whiteSpace=wrap;rounded=0;fontSize=5;fontFamily=Google Sans;fontSource=https%3A%2F%2Ffonts.googleapis.com%2Fcss%3Ffamily%3DGoogle%2BSans;fontColor=#98A2AE;" parent="1" vertex="1">
          <mxGeometry x="494" y="498" width="20" height="10" as="geometry" />
        </mxCell>
        <mxCell id="4zfVuzfaXlXtFDiJQvgs-60" value="&lt;font color=&quot;#ffffff&quot;&gt;.1&lt;/font&gt;" style="text;strokeColor=none;align=center;fillColor=none;html=1;verticalAlign=middle;whiteSpace=wrap;rounded=0;fontSize=5;fontFamily=Google Sans;fontSource=https%3A%2F%2Ffonts.googleapis.com%2Fcss%3Ffamily%3DGoogle%2BSans;textOpacity=50;" parent="1" vertex="1">
          <mxGeometry x="496" y="474" width="20" height="10" as="geometry" />
        </mxCell>
        <mxCell id="4zfVuzfaXlXtFDiJQvgs-70" value="" style="whiteSpace=wrap;html=1;rounded=1;fontFamily=Fira Code;fontSource=https%3A%2F%2Ffonts.googleapis.com%2Fcss%3Ffamily%3DFira%2BCode;strokeColor=none;fontSize=5;" parent="1" vertex="1">
          <mxGeometry x="598.2" y="466.58000000000004" width="45" height="9.67" as="geometry" />
        </mxCell>
        <mxCell id="4zfVuzfaXlXtFDiJQvgs-72" value="&lt;font style=&quot;font-size: 5px;&quot; data-font-src=&quot;https://fonts.googleapis.com/css?family=Google+Sans&quot;&gt;192.168.2.0/24&lt;/font&gt;" style="text;strokeColor=none;align=center;fillColor=none;html=1;verticalAlign=middle;whiteSpace=wrap;rounded=0;fontSize=5;fontFamily=Fira Code;fontSource=https%3A%2F%2Ffonts.googleapis.com%2Fcss%3Ffamily%3DFira%2BCode;" parent="1" vertex="1">
          <mxGeometry x="596.2" y="465.58000000000004" width="52" height="10.16" as="geometry" />
        </mxCell>
        <mxCell id="4zfVuzfaXlXtFDiJQvgs-76" value="" style="endArrow=none;html=1;rounded=0;fontFamily=Google Sans;fontSource=https%3A%2F%2Ffonts.googleapis.com%2Fcss%3Ffamily%3DGoogle%2BSans;strokeColor=#FFFFFF;" parent="1" edge="1">
          <mxGeometry width="50" height="50" relative="1" as="geometry">
            <mxPoint x="606.9872326843283" y="509.58000000000015" as="sourcePoint" />
            <mxPoint x="607.2" y="476.25" as="targetPoint" />
          </mxGeometry>
        </mxCell>
        <mxCell id="4zfVuzfaXlXtFDiJQvgs-79" value="&lt;font&gt;.14&lt;/font&gt;" style="text;strokeColor=none;align=center;fillColor=none;html=1;verticalAlign=middle;whiteSpace=wrap;rounded=0;fontSize=5;fontFamily=Google Sans;fontSource=https%3A%2F%2Ffonts.googleapis.com%2Fcss%3Ffamily%3DGoogle%2BSans;fontColor=#98A2AE;" parent="1" vertex="1">
          <mxGeometry x="591.6" y="498" width="20" height="10" as="geometry" />
        </mxCell>
        <mxCell id="4zfVuzfaXlXtFDiJQvgs-80" value="&lt;font color=&quot;#ffffff&quot;&gt;.1&lt;/font&gt;" style="text;strokeColor=none;align=center;fillColor=none;html=1;verticalAlign=middle;whiteSpace=wrap;rounded=0;fontSize=5;fontFamily=Google Sans;fontSource=https%3A%2F%2Ffonts.googleapis.com%2Fcss%3Ffamily%3DGoogle%2BSans;textOpacity=50;" parent="1" vertex="1">
          <mxGeometry x="594.6" y="474" width="20" height="10" as="geometry" />
        </mxCell>
        <mxCell id="0UbO2tDIL-xU0DGPkXKH-21" value="ip-vrf-1" style="whiteSpace=wrap;html=1;rounded=1;strokeColor=none;verticalAlign=middle;align=center;spacing=0;fontFamily=Google Sans;fontSource=https%3A%2F%2Ffonts.googleapis.com%2Fcss%3Ffamily%3DGoogle%2BSans;fontSize=7;fillColor=#FF3154;fontColor=#FFFFFF;arcSize=36;" parent="1" vertex="1">
          <mxGeometry x="614.6" y="431" width="36" height="10" as="geometry" />
        </mxCell>
        <mxCell id="0UbO2tDIL-xU0DGPkXKH-23" value="&lt;font color=&quot;#404041&quot; style=&quot;font-size: 9px;&quot;&gt;IP Fabric&lt;br style=&quot;font-size: 9px;&quot;&gt;with VXLAN tunneling&lt;br style=&quot;font-size: 9px;&quot;&gt;&lt;/font&gt;" style="html=1;fillColor=#f5f5f5;strokeColor=#b1b3b3;gradientDirection=north;strokeWidth=1;shape=mxgraph.networks.cloud;fontColor=#ffffff;align=center;perimeterSpacing=0;fontFamily=Google Sans;fontSource=https%3A%2F%2Ffonts.googleapis.com%2Fcss%3Ffamily%3DGoogle%2BSans;fontSize=9;" parent="1" vertex="1">
          <mxGeometry x="371.2" y="311" width="104.5" height="50" as="geometry" />
        </mxCell>
        <mxCell id="0UbO2tDIL-xU0DGPkXKH-24" value="" style="endArrow=none;html=1;fontFamily=Google Sans;fontSource=https%3A%2F%2Ffonts.googleapis.com%2Fcss%3Ffamily%3DGoogle%2BSans;strokeColor=#FFFFFF;entryX=0.525;entryY=-0.007;entryDx=0;entryDy=0;entryPerimeter=0;exitX=0.01;exitY=0.824;exitDx=0;exitDy=0;exitPerimeter=0;rounded=0;" parent="1" source="0UbO2tDIL-xU0DGPkXKH-23" target="0UbO2tDIL-xU0DGPkXKH-1" edge="1">
          <mxGeometry width="50" height="50" relative="1" as="geometry">
            <mxPoint x="195" y="508" as="sourcePoint" />
            <mxPoint x="194.56" y="477" as="targetPoint" />
            <Array as="points" />
          </mxGeometry>
        </mxCell>
        <mxCell id="0UbO2tDIL-xU0DGPkXKH-25" value="" style="endArrow=none;html=1;fontFamily=Google Sans;fontSource=https%3A%2F%2Ffonts.googleapis.com%2Fcss%3Ffamily%3DGoogle%2BSans;strokeColor=#FFFFFF;entryX=0.5;entryY=0;entryDx=0;entryDy=0;exitX=0.117;exitY=1.016;exitDx=0;exitDy=0;exitPerimeter=0;rounded=0;" parent="1" source="0UbO2tDIL-xU0DGPkXKH-23" target="0UbO2tDIL-xU0DGPkXKH-8" edge="1">
          <mxGeometry width="50" height="50" relative="1" as="geometry">
            <mxPoint x="373" y="353" as="sourcePoint" />
            <mxPoint x="241" y="396" as="targetPoint" />
            <Array as="points" />
          </mxGeometry>
        </mxCell>
        <mxCell id="0UbO2tDIL-xU0DGPkXKH-26" value="" style="endArrow=none;html=1;fontFamily=Google Sans;fontSource=https%3A%2F%2Ffonts.googleapis.com%2Fcss%3Ffamily%3DGoogle%2BSans;strokeColor=#FFFFFF;entryX=0.5;entryY=0;entryDx=0;entryDy=0;exitX=0.664;exitY=1.008;exitDx=0;exitDy=0;exitPerimeter=0;rounded=0;" parent="1" source="0UbO2tDIL-xU0DGPkXKH-23" target="0UbO2tDIL-xU0DGPkXKH-13" edge="1">
          <mxGeometry width="50" height="50" relative="1" as="geometry">
            <mxPoint x="384" y="363" as="sourcePoint" />
            <mxPoint x="364" y="397" as="targetPoint" />
            <Array as="points" />
          </mxGeometry>
        </mxCell>
        <mxCell id="0UbO2tDIL-xU0DGPkXKH-27" value="" style="endArrow=none;html=1;fontFamily=Google Sans;fontSource=https%3A%2F%2Ffonts.googleapis.com%2Fcss%3Ffamily%3DGoogle%2BSans;strokeColor=#FFFFFF;entryX=0.5;entryY=0;entryDx=0;entryDy=0;exitX=0.97;exitY=0.864;exitDx=0;exitDy=0;exitPerimeter=0;rounded=0;" parent="1" source="0UbO2tDIL-xU0DGPkXKH-23" target="0UbO2tDIL-xU0DGPkXKH-17" edge="1">
          <mxGeometry width="50" height="50" relative="1" as="geometry">
            <mxPoint x="442" y="362" as="sourcePoint" />
            <mxPoint x="491" y="397" as="targetPoint" />
            <Array as="points" />
          </mxGeometry>
        </mxCell>
        <mxCell id="0UbO2tDIL-xU0DGPkXKH-28" value="" style="image;sketch=0;aspect=fixed;html=1;points=[];align=center;fontSize=12;image=img/lib/mscae/Person.svg;" parent="1" vertex="1">
          <mxGeometry x="246.79999999999998" y="510.00000000000006" width="17" height="22.98" as="geometry" />
        </mxCell>
        <mxCell id="0UbO2tDIL-xU0DGPkXKH-29" value="" style="image;sketch=0;aspect=fixed;html=1;points=[];align=center;fontSize=12;image=img/lib/mscae/Person.svg;" parent="1" vertex="1">
          <mxGeometry x="373.4" y="510.00000000000006" width="17" height="22.98" as="geometry" />
        </mxCell>
        <mxCell id="0UbO2tDIL-xU0DGPkXKH-30" value="" style="image;sketch=0;aspect=fixed;html=1;points=[];align=center;fontSize=12;image=img/lib/mscae/Person.svg;" parent="1" vertex="1">
          <mxGeometry x="499.79999999999995" y="510.00000000000006" width="17" height="22.98" as="geometry" />
        </mxCell>
        <mxCell id="0UbO2tDIL-xU0DGPkXKH-31" value="" style="image;sketch=0;aspect=fixed;html=1;points=[];align=center;fontSize=12;image=img/lib/mscae/Person.svg;" parent="1" vertex="1">
          <mxGeometry x="598.4" y="510.00000000000006" width="17" height="22.98" as="geometry" />
        </mxCell>
        <mxCell id="8_VZA7iozwWuDWTokxRT-4" value="" style="curved=1;endArrow=blockThin;html=1;rounded=0;endFill=1;startArrow=blockThin;startFill=1;strokeColor=#00C9FF;fontFamily=Google Sans;fontSource=https%3A%2F%2Ffonts.googleapis.com%2Fcss%3Ffamily%3DGoogle%2BSans;" parent="1" edge="1">
          <mxGeometry width="50" height="50" relative="1" as="geometry">
            <mxPoint x="310.60000000000025" y="525.6700000000001" as="sourcePoint" />
            <mxPoint x="310.60000000000025" y="475.67" as="targetPoint" />
            <Array as="points">
              <mxPoint x="296.60000000000025" y="505.67" />
              <mxPoint x="310.60000000000025" y="475.67" />
            </Array>
          </mxGeometry>
        </mxCell>
        <mxCell id="8_VZA7iozwWuDWTokxRT-7" value="" style="curved=1;endArrow=blockThin;html=1;rounded=0;endFill=1;startArrow=blockThin;startFill=1;strokeColor=#00C9FF;fontFamily=Google Sans;fontSource=https%3A%2F%2Ffonts.googleapis.com%2Fcss%3Ffamily%3DGoogle%2BSans;" parent="1" edge="1">
          <mxGeometry width="50" height="50" relative="1" as="geometry">
            <mxPoint x="437.60000000000025" y="525.6700000000001" as="sourcePoint" />
            <mxPoint x="437.60000000000025" y="475.67" as="targetPoint" />
            <Array as="points">
              <mxPoint x="423.60000000000025" y="505.67" />
              <mxPoint x="437.60000000000025" y="475.67" />
            </Array>
          </mxGeometry>
        </mxCell>
        <mxCell id="8_VZA7iozwWuDWTokxRT-10" value="&lt;font data-font-src=&quot;https://fonts.googleapis.com/css?family=Google+Sans&quot; color=&quot;#ffffff&quot; style=&quot;font-size: 9px;&quot;&gt;BGP session&lt;/font&gt;" style="text;strokeColor=none;align=center;fillColor=none;html=1;verticalAlign=middle;whiteSpace=wrap;rounded=0;fontFamily=Google Sans;fontSource=https%3A%2F%2Ffonts.googleapis.com%2Fcss%3Ffamily%3DGoogle%2BSans;" parent="1" vertex="1">
          <mxGeometry x="595.5" y="326" width="69" height="30" as="geometry" />
        </mxCell>
        <mxCell id="8_VZA7iozwWuDWTokxRT-11" value="" style="endArrow=classic;startArrow=classic;html=1;rounded=0;strokeColor=#00C9FF;fontFamily=Google Sans;fontSource=https%3A%2F%2Ffonts.googleapis.com%2Fcss%3Ffamily%3DGoogle%2BSans;" parent="1" edge="1">
          <mxGeometry width="50" height="50" relative="1" as="geometry">
            <mxPoint x="559" y="343" as="sourcePoint" />
            <mxPoint x="599" y="343" as="targetPoint" />
          </mxGeometry>
        </mxCell>
        <mxCell id="TtXVVSNl_l4F1IVN-Ar2-2" value="" style="whiteSpace=wrap;html=1;rounded=1;fontFamily=Fira Code;fontSource=https%3A%2F%2Ffonts.googleapis.com%2Fcss%3Ffamily%3DFira%2BCode;strokeColor=none;fontSize=5;" parent="1" vertex="1">
          <mxGeometry x="174.4" y="583.26" width="45" height="9.67" as="geometry" />
        </mxCell>
        <mxCell id="TtXVVSNl_l4F1IVN-Ar2-3" value="" style="whiteSpace=wrap;html=1;rounded=1;fontFamily=Fira Code;fontSource=https%3A%2F%2Ffonts.googleapis.com%2Fcss%3Ffamily%3DFira%2BCode;strokeColor=none;fontSize=5;" parent="1" vertex="1">
          <mxGeometry x="174.4" y="600" width="45" height="9.67" as="geometry" />
        </mxCell>
        <mxCell id="TtXVVSNl_l4F1IVN-Ar2-4" value="&lt;font style=&quot;font-size: 5px;&quot; data-font-src=&quot;https://fonts.googleapis.com/css?family=Google+Sans&quot;&gt;192.168.&lt;font color=&quot;#4bdd33&quot;&gt;1&lt;/font&gt;.0/24&lt;/font&gt;" style="text;strokeColor=none;align=center;fillColor=none;html=1;verticalAlign=middle;whiteSpace=wrap;rounded=0;fontSize=5;fontFamily=Fira Code;fontSource=https%3A%2F%2Ffonts.googleapis.com%2Fcss%3Ffamily%3DFira%2BCode;" parent="1" vertex="1">
          <mxGeometry x="174.9" y="583" width="44" height="10" as="geometry" />
        </mxCell>
        <mxCell id="TtXVVSNl_l4F1IVN-Ar2-5" value="&lt;font style=&quot;font-size: 5px;&quot; data-font-src=&quot;https://fonts.googleapis.com/css?family=Google+Sans&quot;&gt;192.168.&lt;font color=&quot;#00c9ff&quot;&gt;2&lt;/font&gt;.0/24&lt;/font&gt;" style="text;strokeColor=none;align=center;fillColor=none;html=1;verticalAlign=middle;whiteSpace=wrap;rounded=0;fontSize=5;fontFamily=Fira Code;fontSource=https%3A%2F%2Ffonts.googleapis.com%2Fcss%3Ffamily%3DFira%2BCode;" parent="1" vertex="1">
          <mxGeometry x="174.9" y="600" width="44" height="10" as="geometry" />
        </mxCell>
        <mxCell id="TtXVVSNl_l4F1IVN-Ar2-6" value="mac-vrf Subnet&lt;font color=&quot;#4bdd33&quot;&gt;A&lt;/font&gt;" style="text;strokeColor=none;align=left;fillColor=none;html=1;verticalAlign=middle;whiteSpace=wrap;rounded=0;rotation=0;fontFamily=Google Sans;fontSource=https%3A%2F%2Ffonts.googleapis.com%2Fcss%3Ffamily%3DGoogle%2BSans;fontColor=#FFFFFF;fontSize=8;" parent="1" vertex="1">
          <mxGeometry x="222.6" y="583" width="79" height="9" as="geometry" />
        </mxCell>
        <mxCell id="TtXVVSNl_l4F1IVN-Ar2-7" value="mac-vrf Subnet&lt;font color=&quot;#00c9ff&quot;&gt;B&lt;/font&gt;" style="text;strokeColor=none;align=left;fillColor=none;html=1;verticalAlign=middle;whiteSpace=wrap;rounded=0;rotation=0;fontFamily=Google Sans;fontSource=https%3A%2F%2Ffonts.googleapis.com%2Fcss%3Ffamily%3DGoogle%2BSans;fontColor=#FFFFFF;fontSize=8;" parent="1" vertex="1">
          <mxGeometry x="222.6" y="600" width="79" height="9" as="geometry" />
        </mxCell>
        <mxCell id="0UbO2tDIL-xU0DGPkXKH-3" value="" style="rounded=1;whiteSpace=wrap;html=1;strokeColor=#EDF3F5;fillColor=none;dashed=1;container=0;arcSize=8;" parent="1" vertex="1">
          <mxGeometry x="180" y="428.58" width="473" height="56" as="geometry" />
        </mxCell>
        <mxCell id="8ZjyRNy0Daxy2mEz9H_D-1" value="VIP&lt;br&gt;1.1.1.100" style="text;strokeColor=none;align=right;fillColor=none;html=1;verticalAlign=middle;whiteSpace=wrap;rounded=0;fontFamily=Google Sans;fontSource=https%3A%2F%2Ffonts.googleapis.com%2Fcss%3Ffamily%3DGoogle%2BSans;fontSize=7;fontColor=#FFFFFF;" parent="1" vertex="1">
          <mxGeometry x="155" y="492" width="17" height="13" as="geometry" />
        </mxCell>
        <mxCell id="8ZjyRNy0Daxy2mEz9H_D-4" value="VIP&lt;br&gt;1.1.1.100" style="text;strokeColor=none;align=right;fillColor=none;html=1;verticalAlign=middle;whiteSpace=wrap;rounded=0;fontFamily=Google Sans;fontSource=https%3A%2F%2Ffonts.googleapis.com%2Fcss%3Ffamily%3DGoogle%2BSans;fontSize=7;fontColor=#FFFFFF;" parent="1" vertex="1">
          <mxGeometry x="408" y="492" width="17" height="13" as="geometry" />
        </mxCell>
        <mxCell id="8ZjyRNy0Daxy2mEz9H_D-5" value="client1" style="text;strokeColor=none;align=center;fillColor=none;html=1;verticalAlign=middle;whiteSpace=wrap;rounded=0;rotation=0;fontFamily=Google Sans;fontSource=https%3A%2F%2Ffonts.googleapis.com%2Fcss%3Ffamily%3DGoogle%2BSans;fontColor=#FFFFFF;fontSize=9;" parent="1" vertex="1">
          <mxGeometry x="237.29999999999998" y="537.3299999999999" width="36" height="4" as="geometry" />
        </mxCell>
        <mxCell id="8ZjyRNy0Daxy2mEz9H_D-7" value="client2" style="text;strokeColor=none;align=center;fillColor=none;html=1;verticalAlign=middle;whiteSpace=wrap;rounded=0;rotation=0;fontFamily=Google Sans;fontSource=https%3A%2F%2Ffonts.googleapis.com%2Fcss%3Ffamily%3DGoogle%2BSans;fontColor=#FFFFFF;fontSize=9;" parent="1" vertex="1">
          <mxGeometry x="363.9" y="537.3299999999999" width="36" height="4" as="geometry" />
        </mxCell>
        <mxCell id="8ZjyRNy0Daxy2mEz9H_D-8" value="client3" style="text;strokeColor=none;align=center;fillColor=none;html=1;verticalAlign=middle;whiteSpace=wrap;rounded=0;rotation=0;fontFamily=Google Sans;fontSource=https%3A%2F%2Ffonts.googleapis.com%2Fcss%3Ffamily%3DGoogle%2BSans;fontColor=#FFFFFF;fontSize=9;" parent="1" vertex="1">
          <mxGeometry x="490.29999999999995" y="537.3299999999999" width="36" height="4" as="geometry" />
        </mxCell>
        <mxCell id="8ZjyRNy0Daxy2mEz9H_D-9" value="node1" style="text;strokeColor=none;align=center;fillColor=none;html=1;verticalAlign=middle;whiteSpace=wrap;rounded=0;rotation=0;fontFamily=Google Sans;fontSource=https%3A%2F%2Ffonts.googleapis.com%2Fcss%3Ffamily%3DGoogle%2BSans;fontColor=#FFFFFF;fontSize=9;" parent="1" vertex="1">
          <mxGeometry x="175.59999999999997" y="550.9999999999999" width="36" height="4" as="geometry" />
        </mxCell>
        <mxCell id="8ZjyRNy0Daxy2mEz9H_D-10" value="node2" style="text;strokeColor=none;align=center;fillColor=none;html=1;verticalAlign=middle;whiteSpace=wrap;rounded=0;rotation=0;fontFamily=Google Sans;fontSource=https%3A%2F%2Ffonts.googleapis.com%2Fcss%3Ffamily%3DGoogle%2BSans;fontColor=#FFFFFF;fontSize=9;" parent="1" vertex="1">
          <mxGeometry x="303" y="550.9999999999999" width="36" height="4" as="geometry" />
        </mxCell>
        <mxCell id="8ZjyRNy0Daxy2mEz9H_D-11" value="node3" style="text;strokeColor=none;align=center;fillColor=none;html=1;verticalAlign=middle;whiteSpace=wrap;rounded=0;rotation=0;fontFamily=Google Sans;fontSource=https%3A%2F%2Ffonts.googleapis.com%2Fcss%3Ffamily%3DGoogle%2BSans;fontColor=#FFFFFF;fontSize=9;" parent="1" vertex="1">
          <mxGeometry x="428.59999999999997" y="550.9999999999999" width="36" height="4" as="geometry" />
        </mxCell>
        <mxCell id="8ZjyRNy0Daxy2mEz9H_D-12" value="client4" style="text;strokeColor=none;align=center;fillColor=none;html=1;verticalAlign=middle;whiteSpace=wrap;rounded=0;rotation=0;fontFamily=Google Sans;fontSource=https%3A%2F%2Ffonts.googleapis.com%2Fcss%3Ffamily%3DGoogle%2BSans;fontColor=#FFFFFF;fontSize=9;" parent="1" vertex="1">
          <mxGeometry x="588.9" y="537.3299999999999" width="36" height="4" as="geometry" />
        </mxCell>
      </root>
    </mxGraphModel>
  </diagram>
  <diagram name="[1] services" id="fm_yAA7m7B1rmnikdwRa">
    <mxGraphModel dx="691" dy="375" grid="0" gridSize="1" guides="1" tooltips="1" connect="1" arrows="1" fold="1" page="1" pageScale="1" pageWidth="850" pageHeight="1100" background="#4D5766" math="0" shadow="0">
      <root>
        <mxCell id="1lxka00idOMf50m3swfu-0" />
        <mxCell id="1lxka00idOMf50m3swfu-1" parent="1lxka00idOMf50m3swfu-0" />
        <mxCell id="8Sw6wWZO998-yPfgmH-o-14" value="" style="rounded=0;whiteSpace=wrap;html=1;fillColor=none;strokeColor=#EDF3F5;dashed=1;dashPattern=1 1;" parent="1lxka00idOMf50m3swfu-1" vertex="1">
          <mxGeometry x="309" y="398" width="200" height="205" as="geometry" />
        </mxCell>
        <mxCell id="1lxka00idOMf50m3swfu-22" value="&lt;font color=&quot;#ffffff&quot; data-font-src=&quot;https://fonts.googleapis.com/css?family=Google+Sans&quot; style=&quot;font-size: 8px;&quot;&gt;&lt;span style=&quot;font-size: 8px;&quot;&gt;nodeX&lt;/span&gt;&lt;/font&gt;" style="text;strokeColor=none;align=center;fillColor=none;html=1;verticalAlign=middle;whiteSpace=wrap;rounded=0;rotation=0;fontFamily=Google Sans;fontSource=https%3A%2F%2Ffonts.googleapis.com%2Fcss%3Ffamily%3DGoogle%2BSans;fontSize=8;fontStyle=0" parent="1lxka00idOMf50m3swfu-1" vertex="1">
          <mxGeometry x="345.6" y="580.99" width="36" height="4" as="geometry" />
        </mxCell>
        <mxCell id="1lxka00idOMf50m3swfu-23" value="&lt;font color=&quot;#ffffff&quot; data-font-src=&quot;https://fonts.googleapis.com/css?family=Google+Sans&quot; style=&quot;font-size: 8px;&quot;&gt;&lt;span style=&quot;font-size: 8px;&quot;&gt;clientX&lt;/span&gt;&lt;/font&gt;" style="text;strokeColor=none;align=center;fillColor=none;html=1;verticalAlign=middle;whiteSpace=wrap;rounded=0;rotation=0;fontFamily=Google Sans;fontSource=https%3A%2F%2Ffonts.googleapis.com%2Fcss%3Ffamily%3DGoogle%2BSans;fontSize=8;fontStyle=0" parent="1lxka00idOMf50m3swfu-1" vertex="1">
          <mxGeometry x="444.5" y="580.99" width="36" height="4" as="geometry" />
        </mxCell>
        <mxCell id="1lxka00idOMf50m3swfu-30" value="" style="sketch=0;html=1;dashed=0;whitespace=wrap;fillColor=#2875E2;strokeColor=#ffffff;points=[[0.005,0.63,0],[0.1,0.2,0],[0.9,0.2,0],[0.5,0,0],[0.995,0.63,0],[0.72,0.99,0],[0.5,1,0],[0.28,0.99,0]];verticalLabelPosition=bottom;align=center;verticalAlign=top;shape=mxgraph.kubernetes.icon;prIcon=node;fontFamily=Google Sans;fontSource=https%3A%2F%2Ffonts.googleapis.com%2Fcss%3Ffamily%3DGoogle%2BSans;" parent="1lxka00idOMf50m3swfu-1" vertex="1">
          <mxGeometry x="353.8" y="557.99" width="19.6" height="19" as="geometry" />
        </mxCell>
        <mxCell id="1lxka00idOMf50m3swfu-71" value="" style="whiteSpace=wrap;html=1;rounded=1;strokeColor=none;verticalAlign=middle;align=center;spacing=0;fontFamily=Google Sans;fontSource=https%3A%2F%2Ffonts.googleapis.com%2Fcss%3Ffamily%3DGoogle%2BSans;fontSize=7;fillColor=#00C9FF;fontColor=#FFFFFF;arcSize=0;" parent="1lxka00idOMf50m3swfu-1" vertex="1">
          <mxGeometry x="349.2" y="423" width="129.4" height="55" as="geometry" />
        </mxCell>
        <mxCell id="1lxka00idOMf50m3swfu-77" value="" style="image;sketch=0;aspect=fixed;html=1;points=[];align=center;fontSize=12;image=img/lib/mscae/Person.svg;" parent="1lxka00idOMf50m3swfu-1" vertex="1">
          <mxGeometry x="457.6" y="557.99" width="11.4" height="15.41" as="geometry" />
        </mxCell>
        <mxCell id="8Sw6wWZO998-yPfgmH-o-0" value="" style="whiteSpace=wrap;html=1;rounded=1;strokeColor=none;verticalAlign=middle;align=center;spacing=0;fontFamily=Google Sans;fontSource=https%3A%2F%2Ffonts.googleapis.com%2Fcss%3Ffamily%3DGoogle%2BSans;fontSize=7;fillColor=#98A2AE;fontColor=#FFFFFF;arcSize=0;" parent="1lxka00idOMf50m3swfu-1" vertex="1">
          <mxGeometry x="334.1" y="505" width="59" height="36" as="geometry" />
        </mxCell>
        <mxCell id="8Sw6wWZO998-yPfgmH-o-1" value="" style="whiteSpace=wrap;html=1;rounded=1;strokeColor=none;verticalAlign=middle;align=center;spacing=0;fontFamily=Google Sans;fontSource=https%3A%2F%2Ffonts.googleapis.com%2Fcss%3Ffamily%3DGoogle%2BSans;fontSize=7;fillColor=#001135;fontColor=#FFFFFF;arcSize=0;" parent="1lxka00idOMf50m3swfu-1" vertex="1">
          <mxGeometry x="433" y="505" width="59" height="36" as="geometry" />
        </mxCell>
        <mxCell id="8Sw6wWZO998-yPfgmH-o-2" value="irb1.1" style="text;html=1;align=center;verticalAlign=middle;resizable=0;points=[];autosize=1;strokeColor=none;fillColor=none;fontFamily=Fira Code;fontSource=https%3A%2F%2Ffonts.googleapis.com%2Fcss%3Ffamily%3DFira%2BCode;fontColor=#FFFFFF;fontSize=8;" parent="1lxka00idOMf50m3swfu-1" vertex="1">
          <mxGeometry x="353.1" y="450" width="47" height="22" as="geometry" />
        </mxCell>
        <mxCell id="8Sw6wWZO998-yPfgmH-o-3" value="" style="endArrow=oval;html=1;rounded=0;fontFamily=Google Sans;fontSource=https%3A%2F%2Ffonts.googleapis.com%2Fcss%3Ffamily%3DGoogle%2BSans;strokeColor=#EDF3F5;exitX=0.655;exitY=-0.015;exitDx=0;exitDy=0;entryX=0.417;entryY=0.942;entryDx=0;entryDy=0;entryPerimeter=0;exitPerimeter=0;startArrow=oval;startFill=1;endFill=1;startSize=3;endSize=3;" parent="1lxka00idOMf50m3swfu-1" source="8Sw6wWZO998-yPfgmH-o-0" target="8Sw6wWZO998-yPfgmH-o-2" edge="1">
          <mxGeometry width="50" height="50" relative="1" as="geometry">
            <mxPoint x="374.22" y="503" as="sourcePoint" />
            <mxPoint x="373.78" y="472" as="targetPoint" />
          </mxGeometry>
        </mxCell>
        <mxCell id="8Sw6wWZO998-yPfgmH-o-4" value="&lt;font data-font-src=&quot;https://fonts.googleapis.com/css?family=Google+Sans&quot; face=&quot;Google Sans&quot;&gt;mac-vrf&lt;/font&gt;&lt;br&gt;subnetA&lt;br&gt;&lt;font color=&quot;#4d5766&quot; style=&quot;font-size: 6px;&quot;&gt;192.168.1.0/24&lt;/font&gt;" style="text;html=1;align=center;verticalAlign=middle;resizable=0;points=[];autosize=1;strokeColor=none;fillColor=none;fontFamily=Fira Code;fontSource=https%3A%2F%2Ffonts.googleapis.com%2Fcss%3Ffamily%3DFira%2BCode;fontColor=#FFFFFF;fontSize=8;" parent="1lxka00idOMf50m3swfu-1" vertex="1">
          <mxGeometry x="329.6" y="501.5" width="68" height="41" as="geometry" />
        </mxCell>
        <mxCell id="8Sw6wWZO998-yPfgmH-o-5" value="&lt;font data-font-src=&quot;https://fonts.googleapis.com/css?family=Google+Sans&quot; face=&quot;Google Sans&quot;&gt;mac-vrf&lt;/font&gt;&lt;br&gt;subnetB&lt;br&gt;&lt;font color=&quot;#98a2ae&quot; style=&quot;font-size: 6px;&quot;&gt;192.168.2.0/24&lt;/font&gt;" style="text;html=1;align=center;verticalAlign=middle;resizable=0;points=[];autosize=1;strokeColor=none;fillColor=none;fontFamily=Fira Code;fontSource=https%3A%2F%2Ffonts.googleapis.com%2Fcss%3Ffamily%3DFira%2BCode;fontColor=#FFFFFF;fontSize=8;" parent="1lxka00idOMf50m3swfu-1" vertex="1">
          <mxGeometry x="429.20000000000005" y="501.5" width="68" height="41" as="geometry" />
        </mxCell>
        <mxCell id="8Sw6wWZO998-yPfgmH-o-6" value="irb1.2" style="text;html=1;align=center;verticalAlign=middle;resizable=0;points=[];autosize=1;strokeColor=none;fillColor=none;fontFamily=Fira Code;fontSource=https%3A%2F%2Ffonts.googleapis.com%2Fcss%3Ffamily%3DFira%2BCode;fontColor=#FFFFFF;fontSize=8;" parent="1lxka00idOMf50m3swfu-1" vertex="1">
          <mxGeometry x="428" y="449.5" width="48" height="23" as="geometry" />
        </mxCell>
        <mxCell id="8Sw6wWZO998-yPfgmH-o-7" value="" style="endArrow=oval;html=1;rounded=0;fontFamily=Google Sans;fontSource=https%3A%2F%2Ffonts.googleapis.com%2Fcss%3Ffamily%3DGoogle%2BSans;strokeColor=#EDF3F5;startArrow=oval;startFill=1;endFill=1;startSize=3;endSize=3;" parent="1lxka00idOMf50m3swfu-1" edge="1">
          <mxGeometry width="50" height="50" relative="1" as="geometry">
            <mxPoint x="451" y="505" as="sourcePoint" />
            <mxPoint x="451" y="472" as="targetPoint" />
          </mxGeometry>
        </mxCell>
        <mxCell id="8Sw6wWZO998-yPfgmH-o-8" value="&lt;font data-font-src=&quot;https://fonts.googleapis.com/css?family=Google+Sans&quot; face=&quot;Google Sans&quot;&gt;ip-vrf&lt;/font&gt;&lt;br&gt;ip-vrf-1" style="text;html=1;align=center;verticalAlign=middle;resizable=0;points=[];autosize=1;strokeColor=none;fillColor=none;fontFamily=Fira Code;fontSource=https%3A%2F%2Ffonts.googleapis.com%2Fcss%3Ffamily%3DFira%2BCode;fontColor=#FFFFFF;fontSize=8;" parent="1lxka00idOMf50m3swfu-1" vertex="1">
          <mxGeometry x="385.4" y="419" width="57" height="33" as="geometry" />
        </mxCell>
        <mxCell id="8Sw6wWZO998-yPfgmH-o-11" value="" style="endArrow=oval;html=1;rounded=0;fontFamily=Google Sans;fontSource=https%3A%2F%2Ffonts.googleapis.com%2Fcss%3Ffamily%3DGoogle%2BSans;strokeColor=#EDF3F5;exitX=0.5;exitY=0;exitDx=0;exitDy=0;exitPerimeter=0;startArrow=oval;startFill=1;endFill=1;startSize=3;endSize=3;entryX=0.5;entryY=1;entryDx=0;entryDy=0;" parent="1lxka00idOMf50m3swfu-1" source="1lxka00idOMf50m3swfu-30" target="8Sw6wWZO998-yPfgmH-o-0" edge="1">
          <mxGeometry width="50" height="50" relative="1" as="geometry">
            <mxPoint x="363.44" y="569" as="sourcePoint" />
            <mxPoint x="360" y="538" as="targetPoint" />
          </mxGeometry>
        </mxCell>
        <mxCell id="8Sw6wWZO998-yPfgmH-o-12" value="" style="endArrow=oval;html=1;rounded=0;fontFamily=Google Sans;fontSource=https%3A%2F%2Ffonts.googleapis.com%2Fcss%3Ffamily%3DGoogle%2BSans;strokeColor=#EDF3F5;startArrow=oval;startFill=1;endFill=1;startSize=3;endSize=3;entryX=0.507;entryY=0.994;entryDx=0;entryDy=0;entryPerimeter=0;" parent="1lxka00idOMf50m3swfu-1" target="8Sw6wWZO998-yPfgmH-o-1" edge="1">
          <mxGeometry width="50" height="50" relative="1" as="geometry">
            <mxPoint x="463" y="555" as="sourcePoint" />
            <mxPoint x="476" y="537" as="targetPoint" />
          </mxGeometry>
        </mxCell>
        <mxCell id="1lxka00idOMf50m3swfu-17" value="" style="shape=image;verticalLabelPosition=bottom;verticalAlign=top;imageAspect=0;aspect=fixed;image=data:image/svg+xml,PHN2ZyB4bWxuczp4bGluaz0iaHR0cDovL3d3dy53My5vcmcvMTk5OS94bGluayIgeG1sbnM9Imh0dHA6Ly93d3cudzMub3JnLzIwMDAvc3ZnIiB4bWw6c3BhY2U9InByZXNlcnZlIiBzdHlsZT0iZW5hYmxlLWJhY2tncm91bmQ6bmV3IDAgMCAxMjAgMTIwOyIgdmlld0JveD0iMCAwIDEyMCAxMjAiIHk9IjBweCIgeD0iMHB4IiBpZD0iTGF5ZXJfMSIgdmVyc2lvbj0iMS4xIj4mI3hhOzxzdHlsZSB0eXBlPSJ0ZXh0L2NzcyI+JiN4YTsJLnN0MHtmaWxsOiMwMDVBRkY7fSYjeGE7CS5zdDF7ZmlsbDpub25lO3N0cm9rZTojRkZGRkZGO3N0cm9rZS13aWR0aDo0O3N0cm9rZS1saW5lY2FwOnJvdW5kO3N0cm9rZS1saW5lam9pbjpyb3VuZDtzdHJva2UtbWl0ZXJsaW1pdDoxMDt9JiN4YTsJLnN0MntmaWxsOiNGRkZGRkY7fSYjeGE7CS5zdDN7ZmlsbDpub25lO3N0cm9rZTojRkZGRkZGO3N0cm9rZS13aWR0aDo0O3N0cm9rZS1taXRlcmxpbWl0OjEwO30mI3hhOwkuc3Q0e2ZpbGw6bm9uZTtzdHJva2U6I0ZGRkZGRjtzdHJva2Utd2lkdGg6NDtzdHJva2UtbGluZWNhcDpyb3VuZDtzdHJva2UtbGluZWpvaW46cm91bmQ7fSYjeGE7CS5zdDV7ZmlsbDojRkZGRkZGO3N0cm9rZTojRkZGRkZGO3N0cm9rZS13aWR0aDo0O3N0cm9rZS1saW5lY2FwOnJvdW5kO3N0cm9rZS1saW5lam9pbjpyb3VuZDtzdHJva2UtbWl0ZXJsaW1pdDoxMDt9JiN4YTsJLnN0NntmaWxsOm5vbmU7c3Ryb2tlOiNGRkZGRkY7c3Ryb2tlLXdpZHRoOjQuMjMzMztzdHJva2UtbGluZWNhcDpyb3VuZDtzdHJva2UtbGluZWpvaW46cm91bmQ7c3Ryb2tlLW1pdGVybGltaXQ6MTA7fSYjeGE7CS5zdDd7ZmlsbDpub25lO3N0cm9rZTojRkZGRkZGO3N0cm9rZS13aWR0aDo0O3N0cm9rZS1saW5lY2FwOnJvdW5kO3N0cm9rZS1taXRlcmxpbWl0OjEwO30mI3hhOwkuc3Q4e2ZpbGw6I0ZGRkZGRjtzdHJva2U6I0ZGRkZGRjtzdHJva2Utd2lkdGg6NDtzdHJva2UtbWl0ZXJsaW1pdDoxMDt9JiN4YTsJLnN0OXtmaWxsOiNGRkZGRkY7c3Ryb2tlOiNGRkZGRkY7c3Ryb2tlLXdpZHRoOjQ7fSYjeGE7CS5zdDEwe2ZpbGw6bm9uZTtzdHJva2U6I0ZGRkZGRjtzdHJva2Utd2lkdGg6NDt9JiN4YTsJLnN0MTF7ZmlsbDojMjYyNjI2O3N0cm9rZTojRkZGRkZGO3N0cm9rZS13aWR0aDo0LjIzMzM7fSYjeGE7CS5zdDEye2ZpbGwtcnVsZTpldmVub2RkO2NsaXAtcnVsZTpldmVub2RkO2ZpbGw6bm9uZTtzdHJva2U6I0ZGRkZGRjtzdHJva2Utd2lkdGg6NDtzdHJva2UtbWl0ZXJsaW1pdDoxMDt9JiN4YTsJLnN0MTN7ZmlsbC1ydWxlOmV2ZW5vZGQ7Y2xpcC1ydWxlOmV2ZW5vZGQ7ZmlsbDojRkZGRkZGO3N0cm9rZTojRkZGRkZGO3N0cm9rZS13aWR0aDo0O30mI3hhOwkuc3QxNHtmaWxsOm5vbmU7c3Ryb2tlOiNGRkZGRkY7c3Ryb2tlLXdpZHRoOjQuMjMzMztzdHJva2UtbGluZWNhcDpyb3VuZDtzdHJva2UtbGluZWpvaW46cm91bmQ7fSYjeGE7CS5zdDE1e2ZpbGw6bm9uZTtzdHJva2U6I0ZGRkZGRjtzdHJva2Utd2lkdGg6NDtzdHJva2UtbGluZWNhcDpyb3VuZDt9JiN4YTsJLnN0MTZ7ZmlsbDojRkZGRkZGO3N0cm9rZTojRkZGRkZGO3N0cm9rZS1taXRlcmxpbWl0OjEwO30mI3hhOwkuc3QxN3tmaWxsOiMyNjI2MjY7c3Ryb2tlOiNGRkZGRkY7c3Ryb2tlLXdpZHRoOjQ7c3Ryb2tlLW1pdGVybGltaXQ6MTA7fSYjeGE7CS5zdDE4e2ZpbGw6I0ZGRkZGRjtzdHJva2U6I0ZGRkZGRjtzdHJva2Utd2lkdGg6NDtzdHJva2UtbGluZWNhcDpyb3VuZDtzdHJva2UtbGluZWpvaW46cm91bmQ7fSYjeGE7PC9zdHlsZT4mI3hhOzxyZWN0IGhlaWdodD0iMTIwIiB3aWR0aD0iMTIwIiBjbGFzcz0ic3QwIi8+JiN4YTs8Zz4mI3hhOwk8Zz4mI3hhOwkJPHBhdGggZD0iTTcxLjcsMTkuN1Y0OGgyOCIgY2xhc3M9InN0MSIvPiYjeGE7CQk8cGF0aCBkPSJNOTEuMiwzOC41bDcuNSw3LjZjMS4zLDEuMywxLjMsMy4xLDAsNC4zTDkxLjEsNTgiIGNsYXNzPSJzdDEiLz4mI3hhOwk8L2c+JiN4YTsJPGc+JiN4YTsJCTxwYXRoIGQ9Ik0yMCw0Ny44aDI4LjR2LTI4IiBjbGFzcz0ic3QxIi8+JiN4YTsJCTxwYXRoIGQ9Ik0zOC44LDI4LjNsNy42LTcuNWMxLjMtMS4zLDMuMS0xLjMsNC4zLDBsNy43LDcuNiIgY2xhc3M9InN0MSIvPiYjeGE7CTwvZz4mI3hhOwk8Zz4mI3hhOwkJPHBhdGggZD0iTTQ4LDEwMC4zVjcySDIwIiBjbGFzcz0ic3QxIi8+JiN4YTsJCTxwYXRoIGQ9Ik0yOC41LDgxLjVMMjEsNzMuOWMtMS4zLTEuMy0xLjMtMy4xLDAtNC4zbDcuNi03LjciIGNsYXNzPSJzdDEiLz4mI3hhOwk8L2c+JiN4YTsJPGc+JiN4YTsJCTxwYXRoIGQ9Ik0xMDAsNzEuOUg3MS42djI4IiBjbGFzcz0ic3QxIi8+JiN4YTsJCTxwYXRoIGQ9Ik04MS4yLDkxLjRsLTcuNiw3LjVjLTEuMywxLjMtMy4xLDEuMy00LjMsMGwtNy43LTcuNiIgY2xhc3M9InN0MSIvPiYjeGE7CTwvZz4mI3hhOzwvZz4mI3hhOzwvc3ZnPg==;fontFamily=Google Sans;fontSource=https%3A%2F%2Ffonts.googleapis.com%2Fcss%3Ffamily%3DGoogle%2BSans;" parent="1lxka00idOMf50m3swfu-1" vertex="1">
          <mxGeometry x="299" y="388" width="20" height="20" as="geometry" />
        </mxCell>
        <mxCell id="BaIJ-BtfUmmp3Fl5LzKa-1" value="&lt;font style=&quot;font-size: 6px;&quot;&gt;.1&lt;/font&gt;" style="text;html=1;align=center;verticalAlign=middle;resizable=0;points=[];autosize=1;strokeColor=none;fillColor=none;fontFamily=Fira Code;fontSource=https%3A%2F%2Ffonts.googleapis.com%2Fcss%3Ffamily%3DFira%2BCode;fontColor=#EDF3F5;fontSize=6;textOpacity=60;" parent="1lxka00idOMf50m3swfu-1" vertex="1">
          <mxGeometry x="366.1" y="462" width="25" height="19" as="geometry" />
        </mxCell>
        <mxCell id="BaIJ-BtfUmmp3Fl5LzKa-2" value="&lt;font style=&quot;font-size: 6px;&quot;&gt;.1&lt;/font&gt;" style="text;html=1;align=center;verticalAlign=middle;resizable=0;points=[];autosize=1;strokeColor=none;fillColor=none;fontFamily=Fira Code;fontSource=https%3A%2F%2Ffonts.googleapis.com%2Fcss%3Ffamily%3DFira%2BCode;fontColor=#EDF3F5;fontSize=6;textOpacity=60;" parent="1lxka00idOMf50m3swfu-1" vertex="1">
          <mxGeometry x="445.5" y="462" width="25" height="19" as="geometry" />
        </mxCell>
      </root>
    </mxGraphModel>
  </diagram>
  <diagram name="[2] MetalLB iBGP with PE" id="cBG_Q3oRXLUjCwy-VNh2">
    <mxGraphModel dx="354" dy="401" grid="0" gridSize="1" guides="1" tooltips="1" connect="1" arrows="1" fold="1" page="1" pageScale="1" pageWidth="850" pageHeight="1100" background="#4D5766" math="0" shadow="0">
      <root>
        <mxCell id="LogCulx-NAqGhaY7Jike-0" />
        <mxCell id="LogCulx-NAqGhaY7Jike-1" parent="LogCulx-NAqGhaY7Jike-0" />
        <mxCell id="Xizp0Uu3ugkbX7H7O-hV-2" value="" style="rounded=0;whiteSpace=wrap;html=1;strokeColor=none;fillColor=#98A2AE;" parent="LogCulx-NAqGhaY7Jike-1" vertex="1">
          <mxGeometry x="390" y="452" width="100" height="83" as="geometry" />
        </mxCell>
        <mxCell id="A8xvckzNxSzJ_ITMLRoy-2" value="" style="endArrow=none;html=1;rounded=0;exitX=1;exitY=0.5;exitDx=0;exitDy=0;strokeColor=#EDF3F5;" parent="LogCulx-NAqGhaY7Jike-1" source="Xizp0Uu3ugkbX7H7O-hV-0" edge="1">
          <mxGeometry width="50" height="50" relative="1" as="geometry">
            <mxPoint x="497" y="538" as="sourcePoint" />
            <mxPoint x="507" y="506" as="targetPoint" />
            <Array as="points">
              <mxPoint x="482" y="506" />
            </Array>
          </mxGeometry>
        </mxCell>
        <mxCell id="Xizp0Uu3ugkbX7H7O-hV-3" value="" style="rounded=0;whiteSpace=wrap;html=1;strokeColor=none;fillColor=#98A2AE;" parent="LogCulx-NAqGhaY7Jike-1" vertex="1">
          <mxGeometry x="575" y="450.5" width="100" height="83" as="geometry" />
        </mxCell>
        <mxCell id="7XTUukPAagRYRj5-9j2s-2" value="" style="rounded=0;whiteSpace=wrap;html=1;fillColor=none;strokeColor=#FFFFFF;dashed=1;" parent="LogCulx-NAqGhaY7Jike-1" vertex="1">
          <mxGeometry x="580" y="462" width="80" height="60" as="geometry" />
        </mxCell>
        <mxCell id="t8SQCBJpbsAjAlZhBiul-0" value="" style="rounded=0;whiteSpace=wrap;html=1;fillColor=none;strokeColor=#FFFFFF;dashed=1;" parent="LogCulx-NAqGhaY7Jike-1" vertex="1">
          <mxGeometry x="399" y="462" width="80" height="60" as="geometry" />
        </mxCell>
        <mxCell id="uRi2WNaSS9zoa8lIIp8N-2" value="&lt;font color=&quot;#4d5766&quot;&gt;net-inst:&lt;/font&gt; ip-vrf-1&lt;br&gt;AS 65535" style="text;strokeColor=none;align=left;fillColor=none;html=1;verticalAlign=middle;whiteSpace=wrap;rounded=0;rotation=0;fontFamily=Google Sans;fontSource=https%3A%2F%2Ffonts.googleapis.com%2Fcss%3Ffamily%3DGoogle%2BSans;fontColor=#FFFFFF;fontSize=8;" parent="LogCulx-NAqGhaY7Jike-1" vertex="1">
          <mxGeometry x="402" y="465.67" width="67" height="12" as="geometry" />
        </mxCell>
        <mxCell id="uRi2WNaSS9zoa8lIIp8N-3" value="" style="sketch=0;html=1;dashed=0;whitespace=wrap;fillColor=#2875E2;strokeColor=#ffffff;points=[[0.005,0.63,0],[0.1,0.2,0],[0.9,0.2,0],[0.5,0,0],[0.995,0.63,0],[0.72,0.99,0],[0.5,1,0],[0.28,0.99,0]];verticalLabelPosition=bottom;align=center;verticalAlign=top;shape=mxgraph.kubernetes.icon;prIcon=node;fontFamily=Google Sans;fontSource=https%3A%2F%2Ffonts.googleapis.com%2Fcss%3Ffamily%3DGoogle%2BSans;" parent="LogCulx-NAqGhaY7Jike-1" vertex="1">
          <mxGeometry x="663" y="443" width="19.6" height="19" as="geometry" />
        </mxCell>
        <mxCell id="7XTUukPAagRYRj5-9j2s-3" style="edgeStyle=orthogonalEdgeStyle;rounded=0;orthogonalLoop=1;jettySize=auto;html=1;exitX=1;exitY=0.5;exitDx=0;exitDy=0;entryX=0;entryY=0.5;entryDx=0;entryDy=0;endArrow=oval;endFill=1;strokeColor=#EDF3F5;startArrow=oval;startFill=1;endSize=3;startSize=3;" parent="LogCulx-NAqGhaY7Jike-1" source="Xizp0Uu3ugkbX7H7O-hV-0" target="Xizp0Uu3ugkbX7H7O-hV-1" edge="1">
          <mxGeometry relative="1" as="geometry" />
        </mxCell>
        <mxCell id="Xizp0Uu3ugkbX7H7O-hV-0" value="" style="shape=image;verticalLabelPosition=bottom;verticalAlign=top;imageAspect=0;aspect=fixed;image=data:image/svg+xml,PHN2ZyB4bWxuczp4bGluaz0iaHR0cDovL3d3dy53My5vcmcvMTk5OS94bGluayIgeG1sbnM9Imh0dHA6Ly93d3cudzMub3JnLzIwMDAvc3ZnIiB4bWw6c3BhY2U9InByZXNlcnZlIiBzdHlsZT0iZW5hYmxlLWJhY2tncm91bmQ6bmV3IDAgMCAxMjAgMTIwOyIgdmlld0JveD0iMCAwIDEyMCAxMjAiIHk9IjBweCIgeD0iMHB4IiBpZD0iTGF5ZXJfMSIgdmVyc2lvbj0iMS4xIj4mI3hhOzxzdHlsZSB0eXBlPSJ0ZXh0L2NzcyI+JiN4YTsJLnN0MHtmaWxsOiMwMDVBRkY7fSYjeGE7CS5zdDF7ZmlsbDpub25lO3N0cm9rZTojRkZGRkZGO3N0cm9rZS13aWR0aDo0O3N0cm9rZS1saW5lY2FwOnJvdW5kO3N0cm9rZS1saW5lam9pbjpyb3VuZDtzdHJva2UtbWl0ZXJsaW1pdDoxMDt9JiN4YTsJLnN0MntmaWxsOiNGRkZGRkY7fSYjeGE7CS5zdDN7ZmlsbDpub25lO3N0cm9rZTojRkZGRkZGO3N0cm9rZS13aWR0aDo0O3N0cm9rZS1taXRlcmxpbWl0OjEwO30mI3hhOwkuc3Q0e2ZpbGw6bm9uZTtzdHJva2U6I0ZGRkZGRjtzdHJva2Utd2lkdGg6NDtzdHJva2UtbGluZWNhcDpyb3VuZDtzdHJva2UtbGluZWpvaW46cm91bmQ7fSYjeGE7CS5zdDV7ZmlsbDojRkZGRkZGO3N0cm9rZTojRkZGRkZGO3N0cm9rZS13aWR0aDo0O3N0cm9rZS1saW5lY2FwOnJvdW5kO3N0cm9rZS1saW5lam9pbjpyb3VuZDtzdHJva2UtbWl0ZXJsaW1pdDoxMDt9JiN4YTsJLnN0NntmaWxsOm5vbmU7c3Ryb2tlOiNGRkZGRkY7c3Ryb2tlLXdpZHRoOjQuMjMzMztzdHJva2UtbGluZWNhcDpyb3VuZDtzdHJva2UtbGluZWpvaW46cm91bmQ7c3Ryb2tlLW1pdGVybGltaXQ6MTA7fSYjeGE7CS5zdDd7ZmlsbDpub25lO3N0cm9rZTojRkZGRkZGO3N0cm9rZS13aWR0aDo0O3N0cm9rZS1saW5lY2FwOnJvdW5kO3N0cm9rZS1taXRlcmxpbWl0OjEwO30mI3hhOwkuc3Q4e2ZpbGw6I0ZGRkZGRjtzdHJva2U6I0ZGRkZGRjtzdHJva2Utd2lkdGg6NDtzdHJva2UtbWl0ZXJsaW1pdDoxMDt9JiN4YTsJLnN0OXtmaWxsOiNGRkZGRkY7c3Ryb2tlOiNGRkZGRkY7c3Ryb2tlLXdpZHRoOjQ7fSYjeGE7CS5zdDEwe2ZpbGw6bm9uZTtzdHJva2U6I0ZGRkZGRjtzdHJva2Utd2lkdGg6NDt9JiN4YTsJLnN0MTF7ZmlsbDojMjYyNjI2O3N0cm9rZTojRkZGRkZGO3N0cm9rZS13aWR0aDo0LjIzMzM7fSYjeGE7CS5zdDEye2ZpbGwtcnVsZTpldmVub2RkO2NsaXAtcnVsZTpldmVub2RkO2ZpbGw6bm9uZTtzdHJva2U6I0ZGRkZGRjtzdHJva2Utd2lkdGg6NDtzdHJva2UtbWl0ZXJsaW1pdDoxMDt9JiN4YTsJLnN0MTN7ZmlsbC1ydWxlOmV2ZW5vZGQ7Y2xpcC1ydWxlOmV2ZW5vZGQ7ZmlsbDojRkZGRkZGO3N0cm9rZTojRkZGRkZGO3N0cm9rZS13aWR0aDo0O30mI3hhOwkuc3QxNHtmaWxsOm5vbmU7c3Ryb2tlOiNGRkZGRkY7c3Ryb2tlLXdpZHRoOjQuMjMzMztzdHJva2UtbGluZWNhcDpyb3VuZDtzdHJva2UtbGluZWpvaW46cm91bmQ7fSYjeGE7CS5zdDE1e2ZpbGw6bm9uZTtzdHJva2U6I0ZGRkZGRjtzdHJva2Utd2lkdGg6NDtzdHJva2UtbGluZWNhcDpyb3VuZDt9JiN4YTsJLnN0MTZ7ZmlsbDojRkZGRkZGO3N0cm9rZTojRkZGRkZGO3N0cm9rZS1taXRlcmxpbWl0OjEwO30mI3hhOwkuc3QxN3tmaWxsOiMyNjI2MjY7c3Ryb2tlOiNGRkZGRkY7c3Ryb2tlLXdpZHRoOjQ7c3Ryb2tlLW1pdGVybGltaXQ6MTA7fSYjeGE7CS5zdDE4e2ZpbGw6I0ZGRkZGRjtzdHJva2U6I0ZGRkZGRjtzdHJva2Utd2lkdGg6NDtzdHJva2UtbGluZWNhcDpyb3VuZDtzdHJva2UtbGluZWpvaW46cm91bmQ7fSYjeGE7PC9zdHlsZT4mI3hhOzxyZWN0IGhlaWdodD0iMTIwIiB3aWR0aD0iMTIwIiBjbGFzcz0ic3QwIi8+JiN4YTs8Zz4mI3hhOwk8Zz4mI3hhOwkJPHBhdGggZD0iTTcxLjcsMTkuN1Y0OGgyOCIgY2xhc3M9InN0MSIvPiYjeGE7CQk8cGF0aCBkPSJNOTEuMiwzOC41bDcuNSw3LjZjMS4zLDEuMywxLjMsMy4xLDAsNC4zTDkxLjEsNTgiIGNsYXNzPSJzdDEiLz4mI3hhOwk8L2c+JiN4YTsJPGc+JiN4YTsJCTxwYXRoIGQ9Ik0yMCw0Ny44aDI4LjR2LTI4IiBjbGFzcz0ic3QxIi8+JiN4YTsJCTxwYXRoIGQ9Ik0zOC44LDI4LjNsNy42LTcuNWMxLjMtMS4zLDMuMS0xLjMsNC4zLDBsNy43LDcuNiIgY2xhc3M9InN0MSIvPiYjeGE7CTwvZz4mI3hhOwk8Zz4mI3hhOwkJPHBhdGggZD0iTTQ4LDEwMC4zVjcySDIwIiBjbGFzcz0ic3QxIi8+JiN4YTsJCTxwYXRoIGQ9Ik0yOC41LDgxLjVMMjEsNzMuOWMtMS4zLTEuMy0xLjMtMy4xLDAtNC4zbDcuNi03LjciIGNsYXNzPSJzdDEiLz4mI3hhOwk8L2c+JiN4YTsJPGc+JiN4YTsJCTxwYXRoIGQ9Ik0xMDAsNzEuOUg3MS42djI4IiBjbGFzcz0ic3QxIi8+JiN4YTsJCTxwYXRoIGQ9Ik04MS4yLDkxLjRsLTcuNiw3LjVjLTEuMywxLjMtMy4xLDEuMy00LjMsMGwtNy43LTcuNiIgY2xhc3M9InN0MSIvPiYjeGE7CTwvZz4mI3hhOzwvZz4mI3hhOzwvc3ZnPg==;fontFamily=Google Sans;fontSource=https%3A%2F%2Ffonts.googleapis.com%2Fcss%3Ffamily%3DGoogle%2BSans;" parent="LogCulx-NAqGhaY7Jike-1" vertex="1">
          <mxGeometry x="454" y="483.85" width="20" height="20" as="geometry" />
        </mxCell>
        <mxCell id="Xizp0Uu3ugkbX7H7O-hV-4" value="AS 65535" style="text;strokeColor=none;align=left;fillColor=none;html=1;verticalAlign=middle;whiteSpace=wrap;rounded=0;rotation=0;fontFamily=Google Sans;fontSource=https%3A%2F%2Ffonts.googleapis.com%2Fcss%3Ffamily%3DGoogle%2BSans;fontColor=#FFFFFF;fontSize=8;" parent="LogCulx-NAqGhaY7Jike-1" vertex="1">
          <mxGeometry x="580" y="463.67" width="67" height="12" as="geometry" />
        </mxCell>
        <mxCell id="Xizp0Uu3ugkbX7H7O-hV-6" value="leaf1" style="text;strokeColor=none;align=left;fillColor=none;html=1;verticalAlign=middle;whiteSpace=wrap;rounded=0;rotation=0;fontFamily=Google Sans;fontSource=https%3A%2F%2Ffonts.googleapis.com%2Fcss%3Ffamily%3DGoogle%2BSans;fontColor=#FFFFFF;fontSize=8;" parent="LogCulx-NAqGhaY7Jike-1" vertex="1">
          <mxGeometry x="390" y="440" width="36" height="12" as="geometry" />
        </mxCell>
        <mxCell id="Xizp0Uu3ugkbX7H7O-hV-7" value="node1" style="text;strokeColor=none;align=left;fillColor=none;html=1;verticalAlign=middle;whiteSpace=wrap;rounded=0;rotation=0;fontFamily=Google Sans;fontSource=https%3A%2F%2Ffonts.googleapis.com%2Fcss%3Ffamily%3DGoogle%2BSans;fontColor=#FFFFFF;fontSize=8;" parent="LogCulx-NAqGhaY7Jike-1" vertex="1">
          <mxGeometry x="575" y="438.5" width="36" height="12" as="geometry" />
        </mxCell>
        <mxCell id="7XTUukPAagRYRj5-9j2s-0" value="" style="endArrow=classic;startArrow=classic;html=1;rounded=0;strokeColor=#00C9FF;fontFamily=Google Sans;fontSource=https%3A%2F%2Ffonts.googleapis.com%2Fcss%3Ffamily%3DGoogle%2BSans;endSize=4;startSize=4;" parent="LogCulx-NAqGhaY7Jike-1" edge="1">
          <mxGeometry width="50" height="50" relative="1" as="geometry">
            <mxPoint x="511" y="494" as="sourcePoint" />
            <mxPoint x="552" y="494" as="targetPoint" />
          </mxGeometry>
        </mxCell>
        <mxCell id="7XTUukPAagRYRj5-9j2s-1" value="iBGP" style="text;strokeColor=none;align=left;fillColor=none;html=1;verticalAlign=middle;whiteSpace=wrap;rounded=0;rotation=0;fontFamily=Google Sans;fontSource=https%3A%2F%2Ffonts.googleapis.com%2Fcss%3Ffamily%3DGoogle%2BSans;fontColor=#FFFFFF;fontSize=8;" parent="LogCulx-NAqGhaY7Jike-1" vertex="1">
          <mxGeometry x="519" y="475.67" width="36" height="12" as="geometry" />
        </mxCell>
        <mxCell id="Xizp0Uu3ugkbX7H7O-hV-1" value="" style="shape=image;verticalLabelPosition=bottom;labelBackgroundColor=default;verticalAlign=top;aspect=fixed;imageAspect=0;image=data:image/png,iVBORw0KGgoAAAANSUhEUgAAAUoAAAFKCAYAAAB7KRYFAAAABHNCSVQICAgIfAhkiAAAAAlwSFlzAAAVoQAAFaEBoDKLtQAAABl0RVh0U29mdHdhcmUAd3d3Lmlua3NjYXBlLm9yZ5vuPBoAAAANdEVYdFRpdGxlAE1ldGFsTEKgRWPUAAAgAElEQVR4nO3dd7glVZX38d+65NTkYAvYhCYHaZKjZAFBgoFBMRBEkoA26Kvi6CgoBnRGRRwdDKPiGBkDElXMiAEJ0kgOTUagm9SBjt/3j12Xvn3jOfesql3n1Po8z31ud9/b+6xdVWefqh3WNoXgBFhV0kaSJkp6saS1BnytOeD7ipJWk7Rs8X05SauOUOxCSc9JmiNpnqSnJS0o/m2mpCclzRj0/SFJD5rZs951DM1kuQMI3QNYXtImkiYXX5sXXxsWXxPyRTesZyU9KOmB4vvdku6UdLuke81sQcbYQheJhjIMAZikTSXtKGl7STsUf54kaZl8kblaKOk+pUZzmqQbJd0k6R4zI2dgoX6ioQwCNpL0Mkm7F187Kj0SN9Fzkv6u1HD+RdIfzWx61ohCdtFQNgzQp9QQ7itpD6WGcWLWoOrvEUl/lHRt8f0GM1uUN6RQpWgoGwDYRtJ+So3j3pLWzhtR13ta0m8k/VLS1WZ2V+Z4QsmioexBwMpKDeMhkl4taeO8EfW8+5Uazcsk/dLM5mSOJziLhrJHABtIeq2kw5TuHFfKG1FjzVFqNH8m6VIzeyJzPMFBNJRdDFhP0hGSjpS0l3pnRLpXLFLq1/y+pIuj0exe0VB2GWB1pYbxTUr9jdE4doeFSnea35P0UzN7LnM8oQ3RUHaBYqT6lZKOlfR6xWN1t5sr6RJJX5f0azNbnDmeMIZoKGsM2ETSCZKOVloaGHrPvUoN5jfN7JHcwYThRUNZM8Xd44GSTlMase7LG1GoyEJJV0j6sqSfx+qgeomGsiaACZKOkjRV0jaZwwl53S3pi5K+ZmazcwcToqHMDniRpJMlnSFp9czhhHp5VtI3JX0ullHmFQ1lJsAOkt4r6Y1KacZCGMlCpSlGnzSzW3MH00TRUFYMeIWkD0l6leL4h/YslvRTSR83sxtyB9Mk8UatCLC7pHOUGsgmmq30KNn/9YzSmun+QYuBf+63ZvF9BUkrF3+eoNRFsXbx1dRr+ApJ55rZn3IH0gRNvcgqA+ws6WxJh2YOpSwoZde5t/i6T9I/i397vP+7mT3v/sIpb+Y6WtJorq2UCWmSUoLh/u/rer92jVwq6YNmNi13IL0sGsqSAJMlfVJpgngvHOd5km6TdKukW4rvd0q6r4xG0BOwilKDubmkbZXSzO1Q/L0XVjYtlvRdSR8xs3tzB9OLeuENXCvAOpI+LOkUde8gzfNK2b6vG/B1V6/lYARWUmo4dyi+dpe0s7r3vM2X9DVJ55jZ47mD6SXRUDoBVlSaA/kBdd80nxmS/iDpt5KukXRzU/eTKRrPXZWSGr+8+Fpz1P9UP89I+qikC5p6Hr1FQ+kAeK2kz0t6Se5YWjRL0tWSfq3UON4SK0GGV6yU2lrSAZIOUkpEsmLWoFp3h6R3m9kVuQPpdtFQdgDYTNIXlJYa1t3tSiOlV0r6vZnNzxxPVyqSIu8j6eDia7OsAbXmSklnmNmduQPpVtFQjkPxePb+4quudxdI+pukH0n6PzO7J3M8PakYtDtC0hsk7ZQ5nNE8rzS4eJ6ZzcsdTLeJhrJNwP6SLlTazrWO/iTpYkk/MrMHcgfTJMAWSg3mG5S2+a2j2ySdYma/zx1I6EHA6sBXgcXUz33AR0l3N6EGgG2Ac4D7c14YI1gMfA1YK/dxCj0EOAx4KO+1PcRs4BvAXqSJ16GGgD7gYODHwPx8l8uwHgEOyX2MQpcD1gK+k/liHuw2YCqwRu7jE9oDbACcBdyd9Qoa6mukNH8htAfYD3gw8wXcbyFwMbAvcffY9QADDgR+Tn26cqYD++Y+NqFLAMsD5wGL8l63AMwCLgDqOnAUOgTsAHwLmJf1SksWA58DVsh9XEKNAVsB1+e9VgF4DPgQsHbuYxKqAbyY9AH9VNYrL/kbsHnuYxJqCDiONECS06PAmaRJzaGBgNWAfwNmZr0S4VngzbmPR6gJYEXg/MwX5T+B9xMNZCgAqxbXRO47zItI2ZdCUwGbATdmvAhnAO8hrfQJYQhgbeCTpP7qXG4mLdcNTQO8Fng604U3F/g00G1ZaUImwHqkgb0Fma7ZmcDBuY9DqAhpasbZ5JmWsYg0wrlx7uMQuhNpxc/PM1y7/dfvB4kpar0NWBn4YaaL7DrSvjkhdAw4FLgj07X8Y2DV3McglADYkDxTfx4HTiTlNQzBDWnO73vI04V0E7Bh7mMQHAG7k9a1VmkR8CWiHzKUDHgR8H8VX98ADwNTctc/OAAOp/r5kXcRy8FCxUiP4w9UfK3PAl6Tu+6hA8DJpHXSVZkPfIxYAhYyIaUD/G+qHaxcCEzNXffQJtLI9kcrvFAAbgB2yF33ECSJlH6v6sGeTxAj4t0BWAa4sMKLYxFpZU/cRYZaAVai+lVn3wSWzV33MArSKOCPKrwo7gP2yl3vEEZDWlzxRIXvi5+Qtm8OdUNas315hRfD14m5ZKFLABOBX1T4/vgFsUa8XoBVgKsrugCeA47OXecQ2kXquz8TeL6i98rviJuJeiA1kr+u6MTfCmyXu84hdAKYQuo2qsI1wGq569xowATgTxWd8P8hsvyEHgGsC/yqovfOH4jGMg/Suu3fVnCSFwDvz13fELyRZohUlSDmj8QGZtUijW5fUcHJfQLYL3d9QygTafVaFevFryUGeKpBaiSrGN2+nkiHFhqClL7t3greV5cDy+Wub08DliWleCrbT4htGULDAOsDf6ng/fV9YJnc9W1H1yw3Ii2N+qqkt5f8Ul+QdKaZLS75dYIkYFdJR0jaTNJESatLelLSE5L+IumnZnZ3vgibhTRR/JuS3ljyS31L0tvMjJJfp1kof+32ImJhf2WA/YHbWjw3VwGTc8fcFEAfaX/vsn0yd117CikLUJnmAq/LXc8mIE16Pp/2R1qfB47IHX+TAO+k/Oxbp+SuZ08g5dgrc0OlWcABuevZFMAXOzhXC4DX565DkwBvIKUPLMtCIp9lZ0iZyeeUeJKeJPWRhQoAxzucs+eIx/BKkaYPlbns8TkiU/r4kPa4KXP7hoeBbXPXsymAjYFnnM7db3PXp2mAAyh3b/FHiOl47SGtuilzI7D7gU1z17NJSHkKPb02d52aBtgDvw+74dxITMtrDamzv8wtZR8gGslKAVvhPyhwM5FNu3LALsAM53M50PfjvLaAtPa0LA8Cm+euY9NQXsb5A3PXrYmAlwIzSzqnAGflrmOtkTIxl7VA/yFiEKBywJqU17d1Ze76NRXpMbys3U0XAQfnrmMtAZsBT5V04J8AtspdxyYCPlDSOe0XG7plQhrgKWs0/CnixmZppG0cyhq8eRbYJXcdm4i0Nv/Bks5rv6/mrmeTkaYOlTXP8mYiB+wSwFdLOtDPE2nSsgGOKum8DjQHWCd3XZusOM9lreD5cu761QLwlpIO8ELgyNz1azJS/sEqfCB3XZuOcpcZvyV3/bIiTRspq0P41Nz1azJg55LO63AeJnIcZgd8vqTz+wxN7a8kJeAtq1/yc7nr13TAt0s6tyMpOy1YGANpa4mflnR+rweWz13HygGfLumAXk6XJQXtNcB6VLclar9rc9c7SMBKlLfh3ydy169SwF6U0/l7A7GPcHbAOSWc21bsnrvuQQLWAe4q4fwuAvbOXb9KAGtRzpSRx4ANc9ev6UhdKo+WcH5b8Z3c9Q8JsC0pK5C3e8iw9W1f1S8o6QJJ3g3aAklHmtlDzuWG9h0laYNMr30k8WFZC2b2D0nHS/Le6mFTSZ93LrNegMNK+IQBOD133UIC/LWkc9yqj+U+BmEJ4DMlnedDc9etFMDqlPPIfVHuuoWEtP43t8dJG2SFGiCNhP+8hPP8MLBGVfWo8tH7P+T/yH2jpJOcywzj967cAUhaV9KbcgcREjNbJOloSd7dYhMlfdy5zLxIO+55ZwV6Dtgid91CAryYcvdWacc0IqdhrZC2dZnnfJ4XAXtUEX/pd5SkRe0Xyn8P8VPN7E7nMsP4vVNSXVbHbCdpr9xBhCXM7C+SPuhcbJ+krwIrOJdbPcpJxPvN3PUKS5AmGT9ZwnnuxI9zH5ewNNJ+4VeXcK7PyV23jpByTM51Pih3EJPKawU40fkce1hIbPlRO6QuGu8P1blln+uyH73Pl+Q5ArlQ0jFmNsuxzNC5Ok7PWkbSabmDCEszs4clneBc7IqSPutcZjWA1zl/akDMkasd4JUlnGcvzwATch+jMBTl5KB9de56tYWUsfw+54NwI03MHlJzwCXO59lb3FXWELAK/uvB76CkNqKsR++pkiY5ljdP0rFmNt+xzNAhYJKkQ3LHMYapQI6lumEUZjZb0onyXeK4haQzHMsrDylzyNPOnxQfyl2vMBTwWefzXJbY0a+mgK84n+ungLVz12tMwAXOFb+dXpgn1WOAVfH/QCzLVbmPVxgeaWnzQ87nu94DO6TpQJ6z7xcD++auVxgKON3xPJdtMbB17mMWhgcc4Xy+5wGbecbo3XfzaUmenalfN7PfOJYXHJCWB3bTIIkprRwKNWRmP5L0E8cil5fkOgndbVkhsLOk6xzLfFzS1mY206m84IQ0DePy3HG0aY6kjeJ6qidgoqTbJHlN51osaRczu9GjMM87ynPku577rLioa6sOWYLatbKkt+cOIgzPzB6RdK5jkX1yvKt0adiAXST91as8STdI2tXMFjuVF5yQMjbdpjzZ8Tv1gKTNzGxh7kDCUKQ5kNOUpvl42c3Mruu0EK+L/Vz5NZJIOiMaydqaqu5sJCVpY0mvyR1EGF4xT/p9zsXWY2oh8HLnEav/zV2nMDxgDcrZMKpKv899HMPogKucz/muncbkcWfw7w5l9Jsj6SzH8oKvt0vq9sxNe5K6ikJ9/T+lBDheOr6r7KihBHaQ9KpOgxjggthJsZ5IywBPzR2HkzpmOwoFM7tF0lccizwM2L6TAjq9o3yf/Pomn1aahxnq6XClrUJ7wVFAri11Q2s+pvSE6cEkvaeTAsbdUAIbSXpDJy8+yKdjOlCtTc0dgKMVFJvS1ZqZPSbpS45Fvrlos8alkzvK98hvj5THJX3RqazgDNhO0t6543B2GpFDoO7Ok/ScU1nLqYPVZONqKIE15Tt591wz8zogwd8Z8t8cLrf15PtEFJyZ2ZOSvuBY5MnAauP5j+O9ozxOfqOfj0n6mlNZwRmwjqQ3546jJN2Ru7DZ/lNp/MLDGpKOH89/bLuhJCVEOGU8LzaCz5rZXMfygq+TJK2UO4iSTAFekTuIMDIze0rS5xyLPJ1x7Pne9n8ADpJ0Zbv/bwQzJU2Kx+56ApaVdJ+kDXPHUqKLzSwewWsMWF1p+alXwowDzOzqdv7DeB69PeegnR+NZK0dod5uJCXpdcDGuYMIIzOzZ+Q7r7LtJ+K27iiBTSTdLZ8VPbMkbVzcWocaAq6V9C+546jAeWYWK8JqrJjac498ZtoslPSSImNRS9pt8E4Yx/8ZybeikawvYIqa0UhK0knAKrmDCCMzswcl/cCpuGWVNjZrWcuNXrGE7eh2IxqpOEkXOJUVynFm7gAqtKakt+QOIozpPx3LOp42duds5+5wf0njntk+yBVmdodTWcEZsJ6kI3PHUbGp4xkNDdUxs5sktTUIM4qNJe3T6i+301Ae23YoI4u7yXo7VWmZX5NsI+mVuYMIY/K8qzym1V9s6RO0GJ5/VD7z6W6XtI2ZeW58HpyQskzfL6mJSSMuM7PDcgcRRlY8Lt8taROH4mZJ2sDMZo/1i63eUR4pv0nHX4lGstaOUjMbSUk6BNgydxBhZMXOB193Km5VSa9v5RdbbSiPGn8sS5kn6dtOZYVyNDlXY7dtw9tU35BfYt+WHr/HbCiBdeWXOeYnxUL3UEPAHpI6Tpvf5Y4ruppCTRXzH69wKm6/VnKTtnJHeaTSvCMPX3UqJ5SjG7eh9baapLflDiKMyast6VMLG86NOZgD/FrSvg4B3SNpcvRP1hPwYqV13V45RrvZdEmbm9mi3IGE4QHLKJ0njyW2vzSzA0f7hVHvKItb0r0cApGk70QjWWvvUjSS/SZJOiR3EGFkxYfYt5yK2xdYe7RfGOvR+3WSlnEK5ntO5QRnwMryTcTcC3pp64te5bmkcdTH77EaSq9P1RvN7HansoK/YyWN+onaQPsVu4yGmjKzaZJucyruiNF+OGJDCawkn75JSfquUznBWbFs752546ipOC7153VXuV/xZDWs0e4o95c04n9sA5IudignlOMgSVvnDqKmji7WvYf6+r5TOStqlGmQozWUXo/dfzaz+53KCv6iL25kKyilFgw1VSTXmeZU3MEj/WC0hvIgpxe/xKmc4AzYQtIBueOoudOAmA1Qb16P3yPeHA7bUALbSHqJ04v/zKmc4O9M+SVi7lUTNUZHf8jux07lbFrcPAwx0ptkP6cXvtPMvEalgqNib3avRMy9LronaqxoY6Y7Ffeq4f5xpIbSa7T7p07lBH8nS4rtD1rzMmD33EGEUV3lVM4+w/3jkIayyPfmlQTjcqdygqNiG9pTc8fRZWIdfL15baG913CZ7oe7o9xRPpOPZ0v6s0M5wd8R8tvWoymOBHp9695u9iulNI6dWkfStoP/cbiG0uux+3dmNt+prOAr+tzat5xSd0WooSJL+TVOxe0z+B+Gayj3dHoxr02AgiNgFzVnG1pvpxQr1kI9eT1+D+l6HK6h3M3pxaKhrKd35w6gi60j6U25gwgj8mpzhtwsLtVpCWwk6QGHF/qnpBdFWrV6ASYq5ZxcPncsXewWSTvEtV0/RY7KGZI8MtRPGriicPAdpdcj2TVxIdXSaYpGslPbyW9WSHBU5Kj0GkBeakuUwQ2l11yxa53KCU6KvrWTcsfRI2IwrL7+6FTOqA2lV/9kNJT1c7RSH1vo3OHAprmDCMPyaiiXagtfaCiLieYvdXiBuZJucCgn+IptWP30KY5nXf1F0gKHcnYu2kRJS99RbqK0IXin/hbzJ+sFOEBSZOv2dQIwIXcQYWnFfMqbHIpaTdLk/r8MbCi93kh/cyon+Ik+NX8TFElF6uovTuVs1/+HgQ3ljk6F3+hUTnAATNYoCUlDR6YOfDwLtXGzUzkvLGUs447S47Y3+JmqyDlZlsnyS3Ad/JTaUG7vUPA8SbHbYk0AayjtsBjKE90a9XOLpMUO5Sz96A0srzSY06lpZuYx4hR8nCCfAbowsgMBj5uM4KQY0LnHoagtgBWkJXeUm0paxqHgWxzKCA6K5VyRc7IacZzrx+Pxe1lJm0tLGsrNHQqV4rG7Tl4nn6eEMLZjAI8crsGP186Mm0r+DeWdTuWEzkXfWXVWlnR87iDCUkppKCeP8ovtiDvKGgCmSNojdxwNc3qxxUaoh3udypkk+d5RLpJfcKEzZ+QOoIE2lvSa3EGEF9znVM5m0pKG0mP/lOlm5rFnRegAsJ6kN+SOo6Giu6MmzOwZSTMditpEWtJQvtihQI+Ev6Fzp0taIXcQDbUnsOvYvxYqMt2hjEmS1AesprRutVPRUGZWzPmKnJN5nZ47gPCC6Q5lrAqs1ifJawvOB53KCeP3Fknr5w6i4Y4CNsgdRJDk10+5QZ+kiU6FPexUThi/d+UOIGh5xba2dVHLhjLuKDMC9pNfBqjQmVOBFXMHEfSIUzkb9Ela16mwR53KCeMTI671sZ6kI3MHETTDqZwN+iSt4VSYV1ChTcAmkg7JHUdYSsxlze9Jp3LW75O0llNhTziVE9o3VT5JTYKfKcArcgfRcF43b6t7NZRzzWyOQzmhTcX0ruNyxxGGFd0hec2QhEM5bg1l3E3m83ZJq+cOIgzr9UW3SMjAzBZKesahqAlefZRPO5QR2lTs1xITnOtrGUmn5A6i4Tz6KVfvU0oR1anZDmWE9h2uYtF+qK0TgVVyB9FgTzmUsXqfpJUcCor+yTyiD6z+1pT01txBNNjzDmVM8Goo446yYsU+LXvnjiO05F2A5Q6ioTwymq0YDWX3erekePN1h20k7Z87iIbyaCiX65PksdRqrkMZoUXF/ixH5Y4jtCW6SfJwayg9chcucigjtO5Y+XzAheocDHhtuRJa59ZQ9o35a2Pz2Gw8tO51uQMIbeuT9M7cQTSQW0PpMXPdo4zQgmLu5G654wjjchwQiwOqFQ1lQ62slPMwdJ/VFNvaVs2lfYuGssuY2SxF7s9udjoQCUyqs5xDGfP65NO/GCe+Wp/JHUAYt00lHZo7iAbx2GvdraGMEdhqfbH4Ct0ppgpVx+2O0mXmukMZoUVmhpm9U2makMfexaFa+wI75A6iITz68+f1yWdVjcfqntAmM7tI0laSvqKYy9ptYiO4arjdUXoktIg7ykzM7AkzO1nS9pKuzB1PaNlbgfVyB9EAqzmU4XZH6ZGqLYwA2AD4MnAt8B3g8MEjp2Z2m5m9WtIBkm7NE2lowwqSTsgdRANMcCjD7Y5yTYcywjCANST9RikB7L9IerOkSyT9HTh48O+b2dWSXqq0uVUkVK630wCPR8MwMo+Gcq7XHaXXBmVhqE8o9UMOtq2kK4CfAZsO/IGZLTCz85WS+n5B0sLywwzjMFHSv+YOosd5rISa2SefUdNoKEsATJJ04hi/dpik24DzgVUH/sDMZprZVKX+yyvKiTJ06N25A+hxHg3lE33y2dJxBSD6Kf2dodYmzC6vNIo6DXjt4B+a2e1mdohS/+U/fEMMHdoF2D13EL2oaJM8Bppn9slvk/C4q3RU3B0e1+Z/myTpJ8CvgG0G/7Dov9xJ0snyO++hczEBvRwbOJXzpNcdpSSt71ROSN6i8T827CfppuJxfKnpEUX/5Vckbanov6yLfwU2zB1ED3qRUzlPet5Rxon2dVKH/385pcfx24FjBv9wQP/ldpIu7/C1QmeWU2xrWwbXO0qvhvLFTuU0HvBySVOcipso6VvA1cDWg39oZneY2aFK/Ze3OL1maN/JQKxw8+X1lDuzT9LDToVFQ+nn1BLKfKWkm4ELgXUG/7Dov5yi1H/5RAmvH0a3jqQ35Q6ix7g+et/vVFg0lA6KRuyIkopfVumR/g5g6jCrewb2X54naX5JcYThnRnb2rqa5FTOw31m9pykZx0K29ihjJDmTZa9dn4tSZ+XdB2w1+AfmtlTZnaW0gj5L0qOJSyxnaR9cgfRQzYd+1fG9LiZzerfWMwjY/bmDmU0WrEfzlgTzD3tJOl3wKXF5PalmNmtZvYqpf7L2yqMq8liqpAfj4byPmnJDoweDeWG0RndsUMkbZLhdQ+VdCvwqcGre6QX+i93VJoA7/H0EUZ2GLBZ7iC6XTHZ3GMwZ6mG8gGHAk1pbXEYv3dkfO2VJL1faTnkMYP7ygasH+/PfxlbFJejT9JpuYPoAZsotUmdmi4taSjvcShQisfvcSsSW7wqdxxK82G/JenXwI6Df2hmjxb5L3eTdG3VwTXECYBH1psm29KpnKXuKG93KnQLp3Ka6BQtOR91sI+kG4CLgCGPMGZ2vaQ9JL1BPk8kYYnVJA1ZJBDasq1TOUs1lHc6Fbq9UzmNAqyg9td1V6FP0tGS7gbOLuJ8QbF3z8WStpF0jqTnM8TYq95VDO6F8dnOqZylGsp75LPmd8ijWmjJUZLWzR3EKFaV9BGl7ERHDv6hmc02s7OVLs6LK46tV02WdFDuILqYxx3lfBXzzPuk1FGvouXs0FaAx65nTZNzEKcdkyX9sFgOOeTpwczuMbM3KK0CmlZ5dL0npgqNQ5E13qMb8NaibVyqT8yjn3I5SUPWE4eRAS+V1G35CF+p1H95ITDkTtjMfq0lyyEjndv4HTjcB1IY09by2X3xhdwHAxvKmx0KlqTYr7g9p+cOYJwGLod8/+AnCTNbOCidW2ynOz4xVah9uziV80KbOLCh/LtT4V5B9rxi47CjcsfRoTUlfUqp//LQwT8ckM5tF0m/rzq4HnA0sHbuILrMbk7lDNtQ3uhU+MucymmCt0laJXcQTraQdCnwS2BIR7qZ3WRme0s6XMUk3tCSlSW9PXcQXWZXp3JeaChfmLlerMR4Wp1v77hA0upmNrfDcnpacbxvk9/E2DpZIOkbkj5oZkP6KIvlZe+T9F7FnvCteEDSZmYW2ejHAKwo6RmlfaQ68aSZvdD//sIdpZkhn37K5ZT2lQ6j21+92UhK6RoYmM5tqQ3SzGxOMZ1oC0nflkT1IXaVjSUN2TQuDGtHdd5ISoNmbQye0HqTwwtI8fjdim6ZEtSJ/nRu04CDB//QzB42s2OUrpc/Vx1cl4mpQq3Zw6mcGwb+ZXBD6XWxegXbk4CJShl7mmIrSVcU/ZfD7Q75V0kvl3SspMeqDq5L7AF49b31sn2cyrlm4F8GN5R/dHqRfWL51ahOkc88r26zv5bsDrnUDpPFcsiLlBKrnCNpXo4Aa65bp5JVomhzPG7S0KCEL0PSEAEPymdHxZ3MzOtRvmcUqwamK2361WQzJH1M0hfNbMgcS2BzSZ+QNGTJZIPNl/QSM4u77mEAUyRd71DUnWa21PjBcHd9f3J4IUna16mcXvM6RSMpSWsr7Q00abgfmtndxXLI/RXLIfstr9jWdjR7O5Uz5Ml6uIbSK8dgNJTDK2OHxW7zsFJ/5N5mNmouVDP7lWI55EDvKKbAhKH2dyqnpYbSq59y70iQsbRiX+0hm3k1yFyl3R23MrOLiilpYxpmOWST5xOup5QDNAxQfHjs41RcSw3lDZKecnixCZL2dCinl5wmn/T03egySduY2VlmNms8BQxYDrm9pKtco+suZ+QOoIb2kc/ihScl3TH4H4c0lEXH+m8dXlBKm2UFScWmXUfnjiODGyXtZWaHmdl0jwLN7HYzO1hpOeS9HmV2mZ2AmIK3NK/cnb8f7klnpCk8v3J60WgolzhanS8P7SYzlO58djWzP5TxAmZ2qVJKrSbuDhkT0Jf2aqdyrhzuH4d9DAS20DC3n+O0hZnd5VRW1wL+rmakoFsg6cuSPk/mNaEAABNPSURBVGxmz1T1osCLJJ0t6QTVa++hsiySNNnMPBJudzXn9mojM3to8D8Oe0GZ2Z3y2zDqMKdyuhawp5rRSF6tNH92apWNpDRkd0ivAck6W0YxVajfvzqVM224RlIa/ZP3l04vHiN0vb+u+05Jh5rZAWb2j5yBFLtD7ql03d2fM5YKnAj0Spq+ThzhVM6IA4SjNZSXOr34bsAkp7K6TrFVwutzx1GSpyWdJWkHM7s8dzD9GrQ75Jpq5gDhC4BNlObZehi2f1IavaH8haQ5Di9uavYytJMkrTDmb3WXxUrp0bY0s/PMrJbrsgekc5us3k3ndmaR27SpvJ5YZ2mUxTYjNpRF4l2vx+9GNpTAMkqDC73kd5KmmNkxZvZ47mBaYWYPFenc9pPflid1sYWkA3IHkZFX/+TVo33gjzU6+DOnIHYBNnMqq5scqhHWMnehh5SWHe5rZl3Z2JjZb5Ue046V1BWNfIsaOVWoWOnmtUfXJaP9cKyG8jL57J5namZfSi8M4sxR6ufbop1lh3VlZouLdG5bKi2nrGW3QZsOBrbKHUQGxziVM1+dNJTFo5VXkoxjm5SjsriD7uZHIiRdrLTs8Oxe2wPJzJ42s7OUpm1dljueDpkatq1t0Za81am4n5vZqMu2W2m4vu8UzCT5LVrvBu9Q9058vkFp2eEbzKynp9iY2Z1mdpjSh1rWqU0dOm5wMuQet5988uZKLbRxrbyRL5ZftpbjnMqpNWAldWddn1RaDribmV0z1i/3EjO7WtJOSvWvdLK8k1UlHZ87iAod61TOXHlNhQSuxMesJnzqAcc5Ha+qzCdtz9CktegjAtYujsfCrGelffeRZlr0NGAdYK7TMftRK6/Z6qPh9zqo10CryO+ToM66aRDnakk7FssOm5ZYYlhmNqNI57arpN/njqcNk9SMTeuOl+SVvLilrsWWJqoCq0n6p6SVOomocIekrbt99HQkwE4atNVlTd0h6d1mdkXuQOoOOEzS+ZI2yR1LC35jZvvlDqIspEGcOyV5TDecLWl9M5s91i+2dEdpZs/Jb07llvJL2V5Hdd8p7yktWXYYjWQLinRu2yodt+cyhzOWfYEdcwdRogPl00hK0g9aaSTbAuzv1CcA8BPX4GoCWAOY7XicPC0CLgLWy32cuhnw4uI4Ls56Nkf39dzHqSzAzxyP07+UEWAfcI9TgAvpwUQZwLudjo+3XwNNSPNWGWBX4NrM53UkzwPr5z5G3oAtSR/4Htra2bPleX5mtljS/7Rdu+EtI+ndTmXVAikxwcm54xjkQUnHmtl+ZnZz7mB6iZldJ+kVSoOTddtnewX1Xo4BSXqP/OYmf7WdX24r6wiwgdKbb9l2/t8I5iht5t4TW5ACB0r6ee44CnMkfUbSp8ysV1OM1QYpJ+R7Jb1ffqOxnXpE0iZmNj93IB5IXUbT5TOgPE/Shu20PW21zmb2mEbJ2damldVby67qMCWof9nh1sWyw2gkK2Bms4t0btsrHf86mCi/hLZ1cJp8GklJ+lHpN2jAwU59BABPAB5bTGYFbAQscDwu43Ed8IrcxyJIwH7AzZmvB4Drch8LD8CqpLbCyz7txjCe5/2r5LeRzzrqjb6Uk+TTHTEejyr1je5uZk3YK6b2zOzXSuncTpb0RMZQdgF2z/j6Xk5Xais83KqUU7V8wKmOrfujdPFdJbAc8LDj8WjVPGLZYe0BaxbnKdcTx3dzH4NOAKsA/3Q8HtWthwdWBmY4Bt+1I+DAUY7HoVWXApvmrntoHWlqyxUZrpUFgFeWncoBZzkei8eAagfbgE87VuAJYNVKK+AE+J3jcRjLbcDBuescxg84DLi7wmsG4OO56z0e+N9N/luOSrwE38eJ91VeiQ4B21DNCo2ZwFQgVz9ocETqrpkKPFPBtQPpRsRrxLgywIccj8EsYK1cFflfx4o8CayRpSLjBPyXY/2HswC4kLTlbegxwIuK81tFOre3565vO4B18f0g+ULOymyN35IigE9nq0ybSFMWyrwj+BWwfe56hvIBU4A/lHgtAUyji7a1BS5wrPtCcm9uCPzIsULP0yVrwPEd+R/oLqCR2/s2GWDAkcD0kq4rgH1z17MVwGakWR1evPLpdlSpKY4Vgi6ZzoD/hOJZwNlUPSoXaoU0o+T9wHPO1xfAT3PXrxXADxzrvJC0rW1++E57WAzsmrtOowH2cq7vRaR19CFIkoAN8U/ntojcj6BjAPZ0rvO3c9fpBcDLHSsG8GdqvLUt8D2nev6VMnLihZ4B7F68H7x8NnedRgIsC/zdsa4LgM1z12sppEnQnmq5tJE0Gvd8h3V7GDiJGn8YhPog5YI9hjRhulPPUtPVXMA7Heo30Ndy12kIYHt8R8BnAF7rO93Q2dyu/mWHq+WuR+g+pJkWZ9P5B/U7c9dlMNLOl092WK+B5gP13OMI33mVAF/JXaeBgGUY/6jkpdT1xIWuAkwGftjB++ouavY0A/xPB/UZzpdy12lEwKakltzLImrUhwe8dhx1uBV4Ve7YQ+8h7WM1bZzvrUNyx9+PlJbOcwBnDvDi3PUaFf6rVf4BrJC7XpIE/LyNuGeQlqn1/Ib0IR/ScsiTaD9f4y9yxy5JwEqkO1xP5+Su15iA9YCnnCt+bg3qtRmt9cH2LzusXf9q6F3AWqT+73aWQ2Zf+QWc125jMIYHSVtz1B/wHufKLwB2ylyn/2whzquB7XLGGZqNtKz4qhbfV/+dOdad8M/T+eacdWoL6XHgducDcBOwXKb6rMTo+Tdj2WGoFdJyyPvGeE/NJlMiGmAFfOdMQto+uGvWs0uSgEOcDwJk6nsAjh8hnv5lh7XoQw1hIGB5Uj/5s6O8p07NFNt/uLYMqVtstxx16Rj+GZ0XAXtnqMd1g+KIZYehawATSf3mw/Wx/z1DPHvin1ruG1XXww0p/X2nk2MHuw9YvcI67Dbo9f8CvKyq1w/BC7AL8Mdh3lNTKoxhdfwzJD0DvKiqOpQC+IjzQYEKF7oD3yhe8yHSMrLu6gMJYQCWpHO7f8D76b8qfP3vlNAevKOq+EtD6rS9rYSD85YKYl+TtKzqU3Tpnj4hDIe0H83ZwFzgaSrYCRU4sYR24A/UbJXRuOGfOgnSQMq2Jce9A7Bxma8RQk7ARqT+9qNLfp3tSKPsnp4Htikz7soBX3c+SAB3UNNMKCF0E2BiiWWvSlrK6+3fy4o5G9LKgUdKOFhdkRE9hKYCvlvC+34asHzuupUCOLSEAwZwWu66hRCGwn+VHqRpTr0984RyHsHnk2F+ZQhhZMCBlLMV72dy1610wATK2WnuSeqW9j2EhgIm0X5Go1bcQK8+cg+Gf/65frcQ2cNDyApYjfHnyRzNbOqyo2JVgM+XcCAhZRLvjXlVIXQZ0gZhV5b03j4ld/0qR5qIfn1JB/TzuesXQhOR1pSX4ZLcdcsG2Jy0TrMM781dvxCaBDirpPfyP4H1c9cvK+DNJR3cxXRTEs8QuhjwRsoZd1gEHJi7frWA/w5s/ebHQQ6hXKRNzryzhPX7cO761QZpgf7NJR3oZ4Bdc9cxhF4EvAL/Ndz9LiMGZpdGmnfluQH6QE8BO+euYwi9hJQ0ZmZJ79n7gLVz17GWgINpbafD8XicXss0EkImwFakQZYyzAZ2yF3HWgM+VNLBB3gM2Cp3HUPoZqSdCx4u8X16bO461h4pA/OPSzwJDxBLHUMYF9J2uI+W+P48P3cduwZpCdRNJZ6MR4jH8BDaAmxDeiory1XAsrnr2VVImZfLvL1/HNgxdz1D6AbA9pTbSN5EJOEeH2AKacuHsjxFr+e1C6FDpJ1Iy5qRAumGaKPc9exqwGsobyQc0jzL/XPXM4Q6Is1EKWueJMCzwEtz17MnAGeUeKIA5lHBro4hdBPgTaTVbWVZABycu549BfhkiScM0jrVSKQRgiTg3ZT7JAdwcu569hzStKGvlHziIOXJjGVToZFI+SS/VMH77EO569qzgD7gBxWcxCuB1XPXN4QqkbaVvbSC99fncte155ES/v6igpN5C7Bp7vqGUAVgY8qdu9zvi7nr2hikbEO/r+CkPgHsk7u+IZQJ2Jc0r7hs3wQsd30bhfSYUEVjOR84PXd9QygDadBmQQXvox8Cy+SubyORGss/VHCSAb4HrJq7ziF4ID2Vfa+i986lNGWL2boirQu/pqITfiuxRjx0OWBbUh98FX5INJL1QGosf1fRiZ8FvDV3nUMYD+AEyl1pM9A3icfteiGNhv+kogsA0iflmrnrHUIrSDcT36nw/fFlYj5yPQHLAd+v8GKYDuyRu94hjIa0r809Fb4vPpW7zmEMwDKUtwn7cBYC5wLL5a57CAMBKwKfpvyliAPFiptuQVruWPba8MFuAqbkrnsIkgTsTHUDNpCmGMXa7W4EnEI1c8QGXiyfAFbMXffQTKS7yI9RbtafwZ4lsgB1N+DVwHMVXjSQphG9PHfdQ7OQVtjcWfG1/hCRT7I3kNLYP1DxBbQYuAhYL3f9Q28D1iT1yy+u+BqfBmycu/7BEWnR/40VX0gAM4CTiakSwRlp4PIkqlmnPdhVwGq5j0EoAbAy1U4fGuivwO65j0HoDcDe5PngBzif2C2x9wFTSdN6crgU2Cz3MQjdCdiQ1KVT9WM2wFzgbbmPQagQcBAwM8PFBmlE8kJg3dzHIXQHYG3gU0VjlcNdwA65j0PIAJhMvscXSP2XZxFZicIISEsPP0KagpPLZcAauY9FyIg07+zLGS9CSJ3x/w9YOffxCPVA6k8/kzwDNf0WkRrpGIgMCfBG0h7fOT1GenOskvt4hDyACcAHyNtAAjwCHJj7eIQaIj2KX5/5AoX0SP5Rog+zMUh9kB8Fnsp65SWXENdeGA2wPGmdeK5R8YHmkLYOjVHyHgVsRer6mZX1SktmA6fkPiahiwAvI4301cEi4JfAkUQi1J4A7EGaKpZjms9wpgHb5z4uoQuRRhy/nvkCHuwu0oZQkTS4ywDrkPqgb816BS1tEfAZYruG0CngUODBvNfzEHNIGasPJEYlawvoAw4grQh7PuP1MpxpwMtyH6PQQ0ijkf9FtUlQW/Ug8HFgy9zHKSSkDbzOBe7LeWGM4Hng34m7yJbFZuRtIqVP+6qkuu7GeKukiyV9z8zuyB1MkwAbSXq9pCMlvSJzOCO5VtKJZnZr7kC6STSU4wCsIOkDkt4naaXM4YzmRqVG82dm9o/cwfQi0gDI4ZJeI2kX1fc99ayksyRdaGaLcwfTbep6UrsCsImkzym9SeruPkmXS7pM0m/NbF7meLoSKXv9KyQdqnTeN8kb0ZgWS/q2pA+Y2aO5g+lW0VA6AA6SdL6kLXLH0qLZkn4v6TfF141mtihvSPUEmKQdJR0gaX9Je6reTxED/UnSVDO7Lncg3S4aSidFx/gZSo/k3ZZA4GmlhvMPkv4s6Xozm5s3pDyKO8ZdJL18wFe3rVJ5SNL7lfqpyR1ML4iG0hmwtqR/k3SapBUyhzNeCyTdrNRoXidpmqR/9NrjetHXvJ2klxZfu0iaIqlbR4PnSvqMpPPMbE7uYHpJNJQlASZJOlfSmyT1wjzHhZLuVGo0b5Z0l6S7Jd1lZrNyBjYWUlamLQZ8bSVpe0lbS+qF/djnS/q6pI+b2cO5g+lF0VCWDNhJ0jlKnf+9erwfVWo075f0iKSHlR7/Hi2+ZprZs2W8MDBB0jrF1/qSXiJpQ0kbSdp4wN978dgvlHSRpI+Z2fTMsfS0Xrx4agnYWdKHJR2mZh73hZJmSnpK0jNK01UWF39W8e/DWVFp8GSC0iPxhOLva0laW71xR9iuRZK+J+kcM7s7dzBN0MQ3bFbAFKUG83DF8Q/tWaQ0L/ajZnZb7mCaJN6omQBbKA34nKR01xTCSGZL+o6kz8ZqqzyiocwMWF/SOyS9U+lxMoR+j0v6sqQLzGxG7mCaLBrKmiBtMPZ2pUYzkls0262SPivpf3ttSla3ioayhoA9JL1L0mvVzMGKJpon6WeSviLpVzFRvF6ioawxYKKkE5TuNDfOHE4oxy2Svibp22Y2M3cwYXjRUHYBUmLefSQdI+kISbEPeHebLekHkr5mZn/KHUwYWzSUXYa0le3rJR0taT9JsYdOd3he0hWSfijp0lhi2F2ioexixbryQ5QSxR6o7l2j3KsWKWVn+rakn5a1OimULxrKHlE0mq9RejTfV92TCqzXPCfpV5IuUWocn84cT3AQDWUPAlZSSi67v9KSybpuW9Er7lVKiHyppD/ElJ7eEw1lAwCTJR2kNCC0l1ICiTB+Tyrl77xK0pVm9lDmeELJoqFsmCJj97ZKjeY+kvZQyroTRnan0qZc1xTfb495js0SDWUQ8BJJu0rarfi+s6TVsgaVzwxJf5d0k4qG0cz+mTekkFs0lGGIYt7mZKXs39sO+D5ZvbNSaL6k25QSEU9TahynmdkjWaMKtRQNZWhZsS/Q5pI2k7Sp0g6E/d83kbRKvuiG9bjS7pPTi+8D/zzdzBZkiyx0lWgog5siscdESetJepGkDYo/r6WUcHfg1xpKk+UnDChiVS25Y31OKdnvAkn9W008o5Ts93mlR+Qni++PF99nDPj3h8xsdgnVDA30/wHjE6z+VB7tCwAAAABJRU5ErkJggg==;" parent="LogCulx-NAqGhaY7Jike-1" vertex="1">
          <mxGeometry x="586" y="483.85" width="19.31" height="19.31" as="geometry" />
        </mxCell>
        <mxCell id="A8xvckzNxSzJ_ITMLRoy-0" value="&lt;font style=&quot;font-size: 4px;&quot;&gt;192.168.1.1&lt;/font&gt;" style="text;strokeColor=none;align=center;fillColor=none;html=1;verticalAlign=middle;whiteSpace=wrap;rounded=0;fontSize=4;fontFamily=Fira Code;fontSource=https%3A%2F%2Ffonts.googleapis.com%2Fcss%3Ffamily%3DFira%2BCode;fontColor=#EDF3F5;" parent="LogCulx-NAqGhaY7Jike-1" vertex="1">
          <mxGeometry x="485" y="497" width="20" height="10" as="geometry" />
        </mxCell>
        <mxCell id="A8xvckzNxSzJ_ITMLRoy-4" value="" style="endArrow=none;html=1;rounded=0;strokeColor=#EDF3F5;entryX=0;entryY=0.5;entryDx=0;entryDy=0;" parent="LogCulx-NAqGhaY7Jike-1" target="Xizp0Uu3ugkbX7H7O-hV-1" edge="1">
          <mxGeometry width="50" height="50" relative="1" as="geometry">
            <mxPoint x="544" y="505" as="sourcePoint" />
            <mxPoint x="572" y="513" as="targetPoint" />
            <Array as="points">
              <mxPoint x="572" y="505" />
            </Array>
          </mxGeometry>
        </mxCell>
        <mxCell id="A8xvckzNxSzJ_ITMLRoy-5" value="&lt;font style=&quot;font-size: 4px;&quot;&gt;192.168.1.11&lt;/font&gt;" style="text;strokeColor=none;align=center;fillColor=none;html=1;verticalAlign=middle;whiteSpace=wrap;rounded=0;fontSize=4;fontFamily=Fira Code;fontSource=https%3A%2F%2Ffonts.googleapis.com%2Fcss%3Ffamily%3DFira%2BCode;fontColor=#EDF3F5;" parent="LogCulx-NAqGhaY7Jike-1" vertex="1">
          <mxGeometry x="549" y="497" width="20" height="10" as="geometry" />
        </mxCell>
      </root>
    </mxGraphModel>
  </diagram>
</mxfile>
